/* XPM */
static char *_47697d5a7144a67982e40c628a4c71eSTq3adD2LdXDmgEJ[] = {
/* columns rows colors chars-per-pixel */
"64 64 251 2 ",
"   c #030202",
".  c #0B0604",
"X  c #0E0906",
"o  c #0D0A0A",
"O  c #110706",
"+  c #130B0A",
"@  c #160D07",
"#  c #1A1105",
"$  c #1A130B",
"%  c #1D1C1E",
"&  c #191615",
"*  c #0D1011",
"=  c #2A0D0B",
"-  c #271B0A",
";  c #301D0A",
":  c #2E1A1C",
">  c #271714",
",  c #331D1C",
"<  c #35240C",
"1  c #25231B",
"2  c #372818",
"3  c #332E11",
"4  c #391F21",
"5  c #251B26",
"6  c #2D2D2E",
"7  c #252527",
"8  c #3C2222",
"9  c #332828",
"0  c #2E2E31",
"q  c #2F2E3C",
"w  c #2F3135",
"e  c #323539",
"r  c #373737",
"t  c #12211A",
"y  c #6E1406",
"u  c #701305",
"i  c #452A0E",
"p  c #40270E",
"a  c #41340A",
"s  c #4A370C",
"d  c #453519",
"f  c #563619",
"g  c #4A2E15",
"h  c #7D271F",
"j  c #7D291E",
"k  c #663B15",
"l  c #6E2D0D",
"z  c #452728",
"x  c #472828",
"c  c #522E27",
"v  c #573424",
"b  c #50352E",
"n  c #782923",
"m  c #6C3E2E",
"M  c #68362B",
"N  c #643332",
"B  c #643933",
"V  c #6A3931",
"C  c #733C30",
"Z  c #662D29",
"A  c #531C17",
"S  c #574813",
"D  c #604E0F",
"F  c #664813",
"G  c #754919",
"H  c #695414",
"J  c #785918",
"K  c #7B4A2C",
"L  c #73462B",
"P  c #7D532D",
"I  c #754730",
"U  c #714B2F",
"Y  c #685F33",
"T  c #393B46",
"R  c #3B3E4B",
"E  c #363845",
"W  c #282557",
"Q  c #322E65",
"!  c #523E4D",
"~  c #3C414D",
"^  c #3F4450",
"/  c #29754B",
"(  c #42444D",
")  c #47484A",
"_  c #414652",
"`  c #434A55",
"'  c #4A4C54",
"]  c #464E59",
"[  c #4A4D59",
"{  c #514E53",
"}  c #47505B",
"|  c #4A535D",
" . c #4D5155",
".. c #53545B",
"X. c #5A5758",
"o. c #5B5749",
"O. c #645D5A",
"+. c #695449",
"@. c #6A6458",
"#. c #786859",
"$. c #7C744D",
"%. c #4C5661",
"&. c #4E5A64",
"*. c #515D65",
"=. c #555C65",
"-. c #4D4B6B",
";. c #53646B",
":. c #55696F",
">. c #596569",
",. c #566A71",
"<. c #596E73",
"1. c #5A7276",
"2. c #5C7679",
"3. c #4F6068",
"4. c #686767",
"5. c #797769",
"6. c #767975",
"7. c #6D706E",
"8. c #9D1D0A",
"9. c #A11D08",
"0. c #A11D07",
"q. c #892418",
"w. c #932111",
"e. c #893211",
"r. c #A52509",
"t. c #B1261D",
"y. c #B1291D",
"u. c #AE3C0E",
"i. c #982B27",
"p. c #902926",
"a. c #AC2F29",
"s. c #AD3029",
"d. c #AD3627",
"f. c #B4322C",
"g. c #D62F24",
"h. c #D82F24",
"j. c #D73123",
"k. c #C02F27",
"l. c #834F1A",
"z. c #83521A",
"x. c #89591B",
"c. c #945B1E",
"v. c #995E1F",
"b. c #B15015",
"n. c #866D17",
"m. c #956D1C",
"M. c #A3671E",
"N. c #AB771F",
"B. c #B56E1D",
"V. c #895829",
"C. c #945B23",
"Z. c #995E21",
"A. c #855730",
"S. c #B15629",
"D. c #9C6121",
"F. c #96692A",
"G. c #9B7727",
"H. c #8C6537",
"J. c #936B37",
"K. c #906E31",
"L. c #A56B22",
"P. c #AD7421",
"I. c #A87728",
"U. c #B47C25",
"Y. c #AC7134",
"T. c #C46E18",
"R. c #C87C1B",
"E. c #CD5A31",
"W. c #CC6B2A",
"Q. c #E36F30",
"!. c #B32355",
"~. c #C92854",
"^. c #ED2A58",
"/. c #887959",
"(. c #93734A",
"). c #87736F",
"_. c #A24D4B",
"`. c #CA5952",
"'. c #DD5865",
"]. c #70883B",
"[. c #2BAD66",
"{. c #68964B",
"}. c #559563",
"|. c #29DA7D",
" X c #B2881E",
".X c #AD842A",
"XX c #A28626",
"oX c #BC8C25",
"OX c #B68627",
"+X c #BC9527",
"@X c #B68F34",
"#X c #B9A32B",
"$X c #969531",
"%X c #C79927",
"&X c #C69934",
"*X c #D49029",
"=X c #CCA423",
"-X c #C9A42B",
";X c #D5AB24",
":X c #D6AA26",
">X c #DDB325",
",X c #DBB32B",
"<X c #CAA636",
"1X c #D8B936",
"2X c #DCAE3B",
"3X c #E2BC2B",
"4X c #E0B725",
"5X c #E3BC36",
"6X c #CB9B1F",
"7X c #ECCD3A",
"8X c #E7C635",
"9X c #EED23C",
"0X c #F1D53E",
"qX c #E5C22E",
"wX c #D9C138",
"eX c #988958",
"rX c #AA934B",
"tX c #B3A854",
"yX c #8A866A",
"uX c #AEA867",
"iX c #A09160",
"pX c #D5BB45",
"aX c #CCB74A",
"sX c #EDAB57",
"dX c #D9C74C",
"fX c #D2C954",
"gX c #E5CB48",
"hX c #ECD94A",
"jX c #F3DB43",
"kX c #F1D948",
"lX c #F0D44A",
"zX c #F6E24A",
"xX c #F9E54C",
"cX c #FAE74D",
"vX c #FCED53",
"bX c #F7E551",
"nX c #FFF155",
"mX c #D6C874",
"MX c #62619A",
"NX c #5875C3",
"BX c #807E88",
"VX c #E46B90",
"CX c #5CD18A",
"ZX c #6D9CD7",
"AX c #63CCE2",
"SX c #87868A",
"DX c #A8A6A5",
"FX c #C7B189",
"GX c #A29CCA",
"HX c #9CA2D9",
"JX c #B7D6B4",
/* pixels */
"DX<.1.<.&._ _ :.2.1.;.| T &.1.2.,.%.~ ] ,.1.<.*.] ~ ;.2.1.:.| T %.1.1.,.&._ _ :.2.1.;.| T &.1.2.:.%.~ ] ,.2.1.*.` ~ ;.2.2.;.;.DX",
"*.;.:.*.%._ _ &.:.;.%.] R %.;.:.*.%.~ ] &.:.;.%.` ~ %.:.;.&.%.R | ;.:.&.&._ _ &.:.;.%.} R %.;.:.*.%.~ ] *.:.;.%.] ~ %.:.:.%.&.,.",
"%.%.%.%.&.` ` %.%.%.| ~ ~ | %.%.%.%.~ ` | %.%.| R _ %.%.%.%.%.R ] | %.%.[ R ` %.%.%.%.} R | %.%.| ` R ] %.%.%.%.] R | %.%.%.:.1.",
"] ] | =.5._ ~ ~ ~ ~ ~ R ~ ~ ` | | | R R ~ ~ ~ ~ R ~ ^ ] | | | R _ _ ~ ~ ~ R ~ ^ [ | | ] E ^ ` _ ~ ~ R ~ ....| | ` T ~ ^ | %.:.2.",
"~ _ ] 5.rX) R ~ ~ ~ ~ ~ ~ ~ ~ ~ ~ ~ ~ ~ ~ ~ ~ ~ ~ ~ ~ ~ ~ ~ ~ ~ | ` T R ~ ~ ~ ~ ~ ~ ~ ~ ~ ] | ~ ~ ~ T ) iXiX_ ~ ~ R ~ ~ _ %.&.:.",
"%.%.&.5.tX' R ~ ~ ~ ~ ~ ~ ~ ~ ~ ~ ~ ~ ~ ~ ~ ~ ~ ~ ~ ~ ~ R _ R R _ ~ R ~ ~ ~ ~ ~ ~ ~ ~ ~ _ | ` T ~ ~ ~ /.aXaX/.( R ~ ~ ~ ~ ] | | ",
"3.%.*.6.uX4._ ~ ~ ~ ~ ~ ~ ~ ~ ~ ~ ~ ~ ~ ~ ~ ~ ~ ~ ~ ~ ~ ~ ~ ~ R R ~ ~ ~ ~ ~ ~ ~ ~ ~ ~ ~ ~ ~ R R ~ R ( rXpXgXtX{ ~ ~ ~ ~ ~ ^ ~ R ",
"1.3.%.6.tXo.T ..( ~ ~ ~ ~ ~ ~ ~ ~ ~ ~ ~ ~ ~ ~ ~ ~ ~ ~ ~ ~ ~ ~ ~ ~ ~ ~ ~ ~ ~ ~ ~ ~ ~ ~ ~ ~ ~ ~ ~ ~ ~ R { rXtX5.~ ~ ~ ~ ~ _ | %.&.",
"2.,.=.yXfX3 * ! | ~ ~ ~ ~ _ ( ~ ( ~ ~ ~ R R R R ~ ~ ~ ~ ~ ~ ~ ~ ~ ~ R ~ ~ ~ _ ' ' ' ' [ ' _ ~ ~ ~ ~ ~ ~ /./._ R ~ ~ ~ ~ _ %.:.1.",
"6.iXuXmXdX3 W Q R _ ~ ' ( e e e e e e e e e e e e e e e e e e e e e e e e e e e e e e e e e e e w e ) ~ ( ( ~ ~ ~ ~ ~ ~ | %.:.2.",
"6.iXuXfXdX3 W Q 5 ..[ | 7 $ - $ = = = = ; - $ = = = = = ; 3 < < 3 3 ; = = = = = $ - - = = = = $ - $ 0 R R R ~ ~ ~ ~ ~ ~ | %.&.:.",
"~ _  .yXfX3 o 5 z 9 =...1 J G.Z i.t.t.y.B.F.Z i.t.t.t.t.B.pX#X+X-XpXS.t.t.t.t.p.v G.B.t.t.t.p.M G.D 6 R ~ ~ ~ ~ ~ ~ ~ ~ ` %.%.| ",
"] ] | 5.tXo.& $ c > ..| 1 n.OXC f.j.h.j.*X.XC k.j.h.h.j.Q.gX+XXX#XlXQ.h.h.h.g.s.C .XW.j.h.j.s.I OXH 6 R ~ ~ ~ ~ ~ ~ ~ ~ ~ ` ^ R ",
"*.%.%.5.uX4.) > x > ..%.1 n.OXC f.j.g.j.*X.XC f.g.g.g.j.Q.%X3 @ S =XE.g.g.g.g.s.m C.b.j.j.j.s.C V.f 6 ~ ~ ~ ~ ~ ~ ~ ~ ~ _ | | %.",
"1.3.] yXtXX.=.! 8 : ) ..& n.OXC i.s.a.d.T.I.V i.s.s.s.s.W.+X;   a %XS.a.s.s.s.i.V F.S.s.a.s.p.C F.S 0 ~ ~ ~ ~ ~ ~ ~ ~ ~ _ %.;.1.",
"2.:.%.yXtX) _ =.& 8 8 o X n.OXV N N N N V.V.N N N N N N F.+X<   s %XV.N N N N N L oXI.N N N N I oXH 6 R ~ ~ ~ ~ ~ ~ ~ ~ _ %.:.1.",
":.&.%.4.yX) ~ =.& z v < @ n.%XG.A.K K K C.C.K K K K K K I.=XJ D n.=XF.V.F.F.F.F.G.-X+XF.F.F.F.I.=XH 6 R ~ ~ ~ ~ ~ ~ ~ ~ _ %.&.:.",
"^ _ ` _ ~ R _ =.& z K G - n.;X=XM.v.v.v.v.v.v.v.v.Z.Z.Z.U.:X:X;X;X;XN.U.;X;X;X;X;X;X;X;X;X;X;X;X=XH 6 R ~ ~ ~ ~ ~ ~ ~ ~ ~ ] %.%.",
"` ] | ] ~ ( =.T + f k v X.Y D D s i i i i i i i i i i i G OXoXoXoXN.F s D D D D D D D D H m.m.H S < 6 R ~ ~ ~ ~ ~ ~ ~ ~ ~ ^ ~ R ",
"*.%.%.| ~ ( ' o @ F f 6 _ { o                   . . . . i v.D.v.D.c.; . . . . . . . . . @ F G @   . 6 R ~ ~ ~ ~ ~ ~ ~ ~ _ | | | ",
"1.;.%.| ~ ( ' - f g o...~ ' .                   $ 4 4 8 c L L L L M $                 @ k N.N.k @   6 ~ ~ ~ ~ ~ ~ ~ ~ ~ _ %.;.1.",
"2.,.&.| ~ ~ ' < G ; X._ ~ ' &         . . X X $ d U U B B B B m L m ; @ @ X o .       - z.oX%Xz.#   6 _ ~ ~ ~ ~ ~ ~ ~ ~ ] %.:.1.",
",.&.%.` R _ ' @ - + { _ R _ X.*     + 8 x z v G.<XdXaXY.V.C.C.I.+XoXx.G G c z ,       . - z.x.;     0 ' ~ ~ ~ ~ ~ ~ ~ ~ %.%.&.,.",
"` ` ] ~ R _ ..7 7 7 ..| R _ 4.*   . > B m m K %X8XcXbX&XU.U.OX-XqX3X%XI.L.P B z + # # # @ f f .     0 [ ~ R ~ ~ ~ ~ ~ ~ ] %.%.%.",
"^ ` ] ~ ~ ~ ~ _ _ ' =.! R _ 4.*   > v V.C.C.Z.L.%X8XcXbXhXhXhXzXcXxXkX8X;X%XA.b c G x.K c > O       0 [ ~ R ~ ~ ~ ~ ~ ~ ~ ` ^ ~ ",
"&.%.| ^ ~ ~ R ~ ~ ( 4.o.( ~ ..r * 5 +.H.V.F.OXOX%X3XjXvXnXnXnXnXvXxXvXjXqX>XF.L L V.Z.C.L , +   + o 0 [ ~ R ~ ~ ~ ~ ~ R ^ | ] } ",
"<.;.` ~ ~ ~ ~ ~ R ^ yXtX4.R _ SXe W MXMX! J.hXzX7X>X3XzXnXnXnXnXzX8XzXvXzX,XU.Z.C.L A.D.C.m , + 8 : 0 | ~ R ~ R _ | ^ R _ %.;.<.",
"2.:.| ~ ~ ~ ~ ~ ~ X.uXgXuX..( BX-.MXZXNXMX/.kXjX9X8X8XjXjXjXvXnXxX7X0XjX9X%XP.M.D.F.F.Z.V.m 8 + x : 0 | ~ R ~ ~ ~ ` R R _ %.,.1.",
",.*.%.` [ ` R R ( /.gXzX1XFX' MXNXHXJXAXNX).,X4X9XvXcX8X>XqXxXnXnXcX8X3X;XP.L.D.M.%XoXC.V B 8 + z : 0 [ ~ ~ ~ ~ ~ R R R _ %.&.<.",
"` ] ] _ ] ^ T ~ ~ X.tX1Xm.DX` ] GXHXHXAXMX(.>X7XzXcX0X9X9X9X9X9X0X0X9X9X8X%XS.d.S.2X,XP.V.K f + z : 0 [ ~ ~ ~ ~ ~ ~ ~ ~ ^ | %.&.",
"^ ` ] ` ~ ~ R ~ R ~ #.XX3 6.4.` DXGXNXZX).OX3XxXnXzXqXkXvXxX3X>X>X3XjXvXxX,X`.!.!.sX9X%XL.D.F @ z : 0 [ ~ ~ ~ ~ ~ ~ ~ ~ ~ _ _ ~ ",
"%.%.%.| ~ ~ ~ ~ ~ R ' @.& r BX` ..DX).).rX%X>X8X9XwX].{.tX8X%XOX%X>X8X7X5X`.'.VX~.`.&X=XM.V.f @ z : 0 [ ~ ~ ~ ~ ~ ~ ~ R ~ } ] ] ",
"<.;.%.| ~ ~ ~ ~ ~ R ~ ..% o { ` _ FXL.M.%X>X>X>X>X#X/ / {.-XP.M.U.>X>X>X*X`.VXVX^.~.E.%XL.I z + z : 0 [ ~ ~ ~ ~ ~ ~ ^ T ^ %.;.<.",
"2.:.%.| ~ ~ ~ ~ ~ R ~ _ % . ) 4.=.mX%X6X:X>X4X>X$X{.CX[.[.].m. X=X>X>X>X>X*X`.'.'.sX&XP.Z.I 8 + z , 0 [ ~ ~ ~ ~ ~ R ~ ~ ] %.,.1.",
"<.*.%.` ~ R ~ ~ ~ ~ ~ ( % . ) DXDXmX:X;X;X;X:X;X].}.JXCX[./ F.%X;X;X>X>X>X>XE.~.'.sX<XC.C.m , + z : 0 [ ~ ~ ~ ~ _ T R ~ | %.3.<.",
"} } | ^ ~ R ~ ~ ~ ~ ~ R % : z r r U P.N.P.P.N.P.F.Y }.|.[.K.D.M.P.U.=X>X4X>XU.S.S.U.H.m m , o o z : 0 [ ~ ~ ~ ~ ~ R ~ ~ | %.%.&.",
"~ _ ] ~ ~ ` ~ ~ ~ ~ ~ R % 8 8     p l.z.z.z.z.l.z.U / [.}.J l.z.l.x.XX+X+X+Xm.z.z.C.L x x $   X z : 0 [ ~ R ~ ~ ~ ~ ~ ~ ^ ] ` ^ ",
"%.%.| ^ ^ | ~ R ~ ~ ~ R % 8 8 .   X # # # # # # # @ * t t # # # # # - - - - # # - c 2 + X     X z , 0 [ ~ R ~ ~ ~ ~ ~ ~ ^ ] ` ` ",
"<.*.` ~ ~ ~ R R ~ ~ ~ R % f U S S s a a a a a a a 3 3 a a a 3 3 a a a a a a a 3 s M f ; ; ; ; < L d 0 [ ~ R ~ ~ ~ ~ ~ ~ _ %.&.,.",
"2.:.] ~ ~ ~ ~ ~ ~ ~ ~ T 1 n.1XhXhXwX=X=X=X=X=X=X=X=X=X=X=X=X=X=X=X=X=X=X=X=X=X=X%XL.v.c.c.c.c.M.+XH 0 [ ~ ~ ~ ~ ~ ~ ~ ~ _ %.,.2.",
"1.;.%._ ~ ~ ~ ~ ~ ~ ~ T 1 H @XpXaX@X.X.XoXoX.X.X.X.X.X.X.X.X.X.X.X.X.X.X.X.X.X.XU.L.C.V.V.V.V.L.I.S 0 ' ~ ~ ~ ~ ~ ~ ~ _ ~ %.;.1.",
"| | | ^ ~ ~ ~ ~ ~ ~ ~ T % 8 K D.I B B B V.V.B B B B B B B B B B B B B B B B B B V C.l.B B N L C.m , 0 [ ~ ~ ~ ~ ~ ~ ~ _ ~ | %.*.",
"~ ^ ` ` ~ ~ ~ ~ ~ ~ ~ T % 8 K I.I Z n q.L.F.N n h h h h h h n h h n h h h h h n V I.Z.h n Z P I.L : 0 [ ~ ~ ~ ~ ~ R ` | R _ ` ` ",
"%.%.%.| ~ ~ ~ ~ ~ R ~ R % 8 A.%XP n 8.r.R..XM w.9.9.9.9.9.9.9.9.9.9.9.9.9.9.0.q.m +XT.9.8.n A.%XP : 0 ' ~ R ~ ~ ~ ~ _ _ ~ ] ` _ ",
",.&.%.| ~ ~ ~ ~ _ E ~ R % 4 A.%XP n 8.r.R..XM w.9.9.9.9.9.9.9.9.9.9.9.9.9.9.9.q.L +XT.9.8.n A.%XU : 0 _ ~ ~ ~ ~ ~ ~ ~ R _ %.&.,.",
"1.:.%.| ~ ~ ~ ~ ~ R ~ R % 4 A.-XP h 8.r.R..XM w.9.9.9.9.9.9.9.9.9.9.9.9.9.9.9.q.L +XT.9.8.n H.-XU : 0 ( ~ ~ ~ ~ ~ ~ ~ ~ ` %.:.2.",
"1.;.%.] ~ ~ ~ ~ ~ ~ ~ R % 4 J.dXA.h 9.r.R..XM w.9.9.9.9.9.9.9.9.9.9.9.9.9.9.9.q.m +XT.9.8.n J.dXP : 6 R ~ ~ ~ ~ ~ ~ ~ ~ | %.;.1.",
"%.| | _ ~ ~ ~ ~ ~ R ~ _ % 4 J.dXH.h 8.r.R..XM w.9.9.9.9.9.9.9.9.9.9.9.0.9.0.9.q.m +XT.9.8.n J.dXP : 6 ( ~ ~ ~ ~ ~ ~ ~ ~ | %.%.;.",
"R ~ ` ~ ~ ~ ~ R ~ R ^ [ % 4 H.<XP n 8.r.R..XM w.9.9.9.9.9.9.9.9.9.9.9.9.9.0.0.q.m +XT.9.8.n H.<XP > > +...~ ~ ~ ~ ~ ~ ~ _ [ ] ` ",
";.%.%._ ~ ~ ~ ( ~ R _ ..% 4 A.%XP h 9.r.T.I.M w.9.9.9.9.9.9.9.9.0.9.9.r.u.u.r.q.m OXB.9.8.n A.%XU 2 i F.@._ R ~ ~ ~ ~ ~ ~ ~ T E ",
"2.:.%._ ~ R { @.( R _ ..% 4 A.%XP h 9.r.b.V.M w.9.9.9.9.9.9.9.9.9.9.9.b.6X6Xb.q.M C.b.9.8.n A.%XP L m.%XG.#.( R ~ ~ ~ ~ ] } ] ] ",
"1.:.%.| ~ ) $.eXO.~ _ 4.d v P m.f A y y l f x y u u u u u u y u q.b.b.*XqX4XT.e.x k l u y A L oXG.Y.%X:X%X(.O.~ ~ ~ ~ } %.%.%.*.",
"_ ` ] ` ~ $.gXhXrX) O.H.c.c.F # X X O O + o o O O O O O O O . . s =XlXbXzX3X;Xm.@ . O O O . < L.gXbXkX3X:X+X(._ ~ ~ ~ | %.%.;.1.",
"` ` ] _ R o.tXaX/.@.(.OX&X&XG.g ( ) ) ) ) ) ) ) ) ) ) ) ) ) d s n.8XjXjXjX7X7X#XD a b ) ( x F oX7XjXjX7X7X-XH.' ~ ~ ~ | %.%.:.2.",
",.&.%.| ~ ~ @./.{ #.OX3XxXvXpXJ.X.^ ~ ~ ^ ~ ~ ~ ~ ~ ~ ~ ^ ) (.oXqXzX8X>X3XxXvXjX;XI.@.^ ( O.G.-X>X>X3XxXvXpXH.) ~ ~ ~ ] %.%.&.,.",
"<.&.%.%.~ R _ @.o.Y.,XjXvXzX5X@X/.( R R R R R R R R R R R ~ 4.rX%X<X%X%X4X7X0X5X+X/.' ^ _ ` >.@..XoX%X<X<XrX#.( R ~ ~ ~ | %.%.%.",
"&.%.%.| ~ R ~ X.H.%X7XvXbX7X>X:XI.{ ~ ~ ~ ~ ~ ~ ~ ~ ~ ~ ~ R _ #.V.F.F.OX:X>X>X%XH.{ ~ [ ] R ` ~ +.A.V.F.H.#._ R ~ ~ ~ ~ ` ` ` ~ ",
"R ~ ` _ ~ ~ ~ ` 4.(.OX&X&XOX XOX/._ ~ ~ _ | | | ^ ~ ~ ~ ~ ~ ~ ( X.X.7.eXOX XOX(.X.^ ( ^ ^ ~ ` | | ' ) { X.' ~ ~ ~ ~ _ ] | | ~ q ",
"| | %.%.| _ ] %.>./.J.J.H.J.J.(.4.} ^ ] %.%.&.%.] _ | %.%.%.] ^ %.&.*.7.H.H.H.#.*.%.| ` ^ | %.%.&.%.^ ] %.%.%.| _ ` %.%.%.&.| E ",
"%.;.,.,.&.` ` &.,.2.6.7.4.6.}.6.:.&.^ ] *.,.,.*.] ~ %.:.,.:.%.~ | ;.,.:.>.' ' *.:.,.;.| ~ %.:.,.:.%.~ ] &.,.,.3.] ^ %.:.,.:.%.T ",
"*.<.1.1.:._ _ :.1.1.<.%.R *.1.1.1.;.~ ] ,.1.1.,.] ~ ;.1.1.<.&.R %.<.1.1.:.` ` :.1.1.<.| R &.<.1.1.;.~ ] ,.1.1.,.] ~ ;.1.1.1.&.E ",
"&.&.&.&.&._ _ &.&.&.&.| T %.&.&.&.&.~ ] &.&.&.&.] ~ &.*.&.&.%.R | *.&.&.&._ _ &.&.&.&.| R %.&.&.&.%.~ ] &.&.&.&.] ~ %.&.&.&.%.q ",
"%.%.} ] | _ _ %.| ] ` _ E | %.] ] %.~ ` %.| ` ` ^ R %.%.` } | R [ %.} ` ` R _ %.| ` | } R | %.] ` ` T ` %.| ` | ` ~ %.%.` ` ` e ",
"_ _ ~ ~ _ R R _ ^ R R R E _ _ ~ ~ _ E ~ _ _ R R E E _ _ ~ ~ _ E ~ _ ~ ~ ~ E R _ _ ~ _ ~ E _ ` ~ R R E ~ _ _ ~ _ ~ E _ _ ~ R _ SX"
};
