/* XPM */
static char *af02960e2fdd4e2f824d41aea3ef7e59i29MecWstbkizevb[] = {
/* columns rows colors chars-per-pixel */
"64 64 192 2 ",
"   c #AEB3B8",
".  c #56666D",
"X  c #5D7879",
"o  c #596E72",
"O  c #505C65",
"+  c #424752",
"@  c #424753",
"#  c #586B70",
"$  c #5D7678",
"%  c #5C7477",
"&  c #526169",
"*  c #4B545F",
"=  c #393A47",
"-  c #526168",
";  c #576A6F",
":  c #4F5A64",
">  c #3D404C",
",  c #48505A",
"<  c #596F73",
"1  c #5D7779",
"2  c #5B7275",
"3  c #515E67",
"4  c #474E59",
"5  c #3D3F4C",
"6  c #55666D",
"7  c #54656C",
"8  c #4D5862",
"9  c #4E5963",
"0  c #A5AAAF",
"q  c #4F5963",
"w  c #515F67",
"e  c #56686E",
"r  c #505C66",
"t  c #55676E",
"y  c #53626A",
"u  c #4B555F",
"i  c #3A3B48",
"p  c #55676D",
"a  c #505D66",
"s  c #4E5A64",
"d  c #515F68",
"f  c #54646B",
"g  c #4D5963",
"h  c #454C57",
"j  c #4D5863",
"k  c #4D5761",
"l  c #3E424E",
"z  c #3E414D",
"x  c #4E5862",
"c  c #464D58",
"v  c #4B5560",
"b  c #3C3D4A",
"n  c #424652",
"m  c #4E5863",
"M  c #4A535D",
"N  c #49515C",
"B  c #464C57",
"V  c #4D5762",
"C  c #464C58",
"Z  c #3A3C48",
"A  c #3C3F4B",
"S  c #5C7578",
"D  c #48505B",
"F  c #4A535E",
"G  c #4A525D",
"H  c #404551",
"J  c #3F434F",
"K  c #404450",
"L  c #40444F",
"P  c #40434F",
"I  c #474D58",
"U  c #4B545E",
"Y  c #3D3F4B",
"T  c #3F424E",
"R  c #48515C",
"E  c #383945",
"W  c #414551",
"Q  c #434954",
"!  c #393946",
"~  c #414651",
"^  c #454B57",
"/  c #3B3C49",
"(  c #40424E",
")  c #48515B",
"_  c #3E404D",
"`  c #3B3D49",
"'  c #54666C",
"]  c #434753",
"[  c #3E404C",
"{  c #424853",
"}  c #444954",
"|  c #3C3E4A",
" . c #434854",
".. c #393B47",
"X. c #474F5A",
"o. c #4C5661",
"O. c #404550",
"+. c #414652",
"@. c #3A3B47",
"#. c #5A7275",
"$. c #516068",
"%. c #576A70",
"&. c #586D72",
"*. c #4F5B65",
"=. c #55686E",
"-. c #3E414E",
";. c #526068",
":. c #414450",
">. c #434A55",
",. c #464E58",
"<. c #3B3D4A",
"1. c #4C5660",
"2. c #4F5C65",
"3. c #5B7376",
"4. c #53636A",
"5. c #444A55",
"6. c #4F5B64",
"7. c #444B56",
"8. c #56696F",
"9. c #4C555F",
"0. c #3F424F",
"q. c #576B70",
"w. c #49525C",
"e. c #49525D",
"r. c #444A56",
"t. c #464E59",
"y. c #4E5A63",
"u. c #424551",
"i. c #4C5861",
"p. c #526069",
"a. c #5B7276",
"s. c #4D5660",
"d. c #4E5964",
"f. c #586C71",
"g. c #49515B",
"h. c #484F5A",
"j. c #454B56",
"k. c #5A7174",
"l. c #3C3E4B",
"z. c #5A7175",
"x. c #4A525C",
"c. c #505D67",
"v. c #596E73",
"b. c #3E424D",
"n. c #424854",
"m. c #3B3C48",
"M. c #5A7074",
"N. c #3F434E",
"B. c #3A3A47",
"V. c #4B535E",
"C. c #434955",
"Z. c #404350",
"A. c #444A54",
"S. c #4C5761",
"D. c #454D58",
"F. c #393A46",
"G. c #576970",
"H. c #373744",
"J. c #5C7678",
"K. c #3D3E4A",
"L. c #474E58",
"P. c #4A545E",
"I. c #597073",
"U. c #434853",
"Y. c #4B5660",
"T. c #312F3C",
"R. c #414550",
"E. c #383745",
"W. c #56696E",
"Q. c #53636B",
"!. c #55666C",
"~. c #505E67",
"^. c #383845",
"/. c #515D66",
"(. c #5A6F73",
"). c #5C7476",
"_. c #4E5962",
"`. c #55656C",
"'. c #505B65",
"]. c #4F5D66",
"[. c #4F5A63",
"{. c #31313C",
"}. c #444955",
"|. c #302F39",
" X c #434953",
".X c #363542",
"XX c #383946",
"oX c #383846",
"OX c #363643",
"+X c #3D414C",
"@X c #9A9A9F",
"#X c white",
/* pixels */
"  . X o O + @ # $ % & * = - % $ ; : > , < 1 2 3 4 5 6 $ $ 7 8 = 9 2 1 o O + @ # $ % & * = - % $ ; : > , < 1 2 3 4 5 6 $ $ 7 : 0 ",
"q w e r : + + O t y 9 u i 9 y p : : > 4 a e w s 4 > : 7 7 9 9 i u d e r : + + O p y 9 u i 9 y t : : > 4 a e w s 4 > : 7 7 9 9 f ",
"s 9 9 9 g h h j k k 8 l z 8 x 9 9 : > c j k k v b n g m 9 9 9 i M k k 8 N i B g 9 9 9 u i V k k x C Z N 8 9 9 s 4 A 9 k 9 x 7 S ",
"4 D F G H J J K L L L 5 l P I * U u > A K L L J Y T K D U U U i + + L K T 5 J H G U U R E W Q W L z > P @ U U u h ! K H U m p $ ",
"z ~ h P z z z z z z z z z z z z z z z z z z z z z z z z z z z J 8 ^ / z z z z z z z z z ( ) 9 _ J K ` z z z z z z z z z n 9 9 ' ",
": : s ] z z z z z z z z z z z z z z z z z z z z z z z z [ { > A } J | z z z z z z z z z n 9  ...T J | z z z z z z z z z T X.8 o.",
"a 9 9 u J z z z z z z z z z z z z z z z z z z z z z z z z J z > [ z z z z z z z z z z z T O.> > z z z z z z z z z z z z T +.z @.",
"#.$.9 k J z z z z z z z z z z z z z z z z z z z z z z z z z z z z z z z z z z z z z z z z z z z z z z z z z z z z z z z n x V $.",
"1 %.m k J z z z z z z z z z z z z z z z z z z z z z z z z z z z z z z z z z z z z z z z z z z z z z z z z z z z z z z z n x f % ",
"&.O 9 u J z z z z z z z z z z z z z z z z z z z z z z z z z z z z z z z z z z z z z z z z z z z z z z z z z z z z z z J U m e 1 ",
"*.s s ] z z z z z z z z z z z z z z z z z z z z z z z z z z z z z z z z z z z z z z z z z z z z z z z z z z z z z z z J 8 9 s =.",
"z ~ h P z z z z z z z z z z z z z z z z z z z z z z z z z z z z z z z z z z z z z z z z z z z z z z z z z z z z z z z l I 9 x 8 ",
"4 D F W z z z z z z z z z z z z z z z z z z z z z z z z z z z z z z z z z z z z [ > z z z z z z z z z z z z z z z z z z T Q -.i ",
";.9 u :.z z z z z z z z z z z z z z z z z z z z z z z z z z z z z z z z z z z z >.,.K ~ <.z z z z z z z z z z z z z z z n k 1.2.",
"3.4.5.[ z z z z z z z z z z z z z z z z z z z z z z z z z z z z z z z z z z z J 6.y 7.@ Z z z z z z z z z z z z z z z z n 9 y 3.",
"1 8.* :.z z z z z z z z z z z z z z z z z z z z z z z z z z z z z z z z z z z J 9.V 0.` z z z z z z z z z z z z z z z z n x 8.1 ",
"q.*.: n z z z z z z z z z z z z z z z z z z z z z z z z z z z z z z z z z z z z J J z W ~ z z z z z z z z z z z z z z z n 9 : ; ",
"K { c P z z z z z z z z z z z z z z z z z z z z z z z z z z z z z z z z z z z z z z z * w.Z z z z z z z z z z z z z z z P e.s 9 ",
"r.t.N D T z z z z z z z z z z z z z z z z z z z z z z z z z z z z z z z z z z z z z z + W <.z z z z z z z z z z z z z z z H J / ",
"w 9 y.k J z z z z z z z z z z z z z z z z z z z z z z z z z z z z z z z z z z z z z z z z z z z z z z z z z z z z z z z u.1.U i.",
"2 p.9 k J z z z z z z z z z z z z z z z z z z z z z z z z z z z z z z z z z z z z z z z z z z z z z z z z z z z z z z z n 9 & a.",
"1 %.m s.J z z z z z z z z z z z z z z z z z z z z z z z z z z z z z z z z z z z z z z z z z z z z z z z z z z z z z z T N m %.1 ",
"&.r d.} z z z z z z z z z z z z z z z z z z z z z z z z z z z z z z z z z z z z z z z z z z z z z z z z z z z z z z z J x 9 *.f.",
"{ 7.X.K z z z z z z z z z z z z z z z z z z z z z z z z z z z z z z z z z z z z z z z z z z z z z z z z z z z z z z z T g.9 s : ",
"@ 7.h.K z z z z z z z z z z z z z z z z z z z z z z z z z z z z z z z z z z z z z z z z z z z z z z z z z z z z z z z z J j.K Y ",
"a : 8 u.z z z z z z P > z z z z z z z z z z z z z z z z z z z z z z z z z z z z z z z z z z z z z z z z z z z z T K J z W * N M ",
"k.;.7.[ z z z z z [ 5.` > z z z z z z z z z z z z z z z z z z z z z z z z z z z z z z z z z z z z z z z z z z z n 9 +.l.n 9 d z.",
"1 %.x.P z z z z z z z z z z z z z z z z z z z z z z z z z z z z z z z z z z z z z z z z z z z z z z z z z z z z P h > l.n x %.1 ",
"< c.:  .F ^ Y z z z z z z z z z z z z z z z z z z z z z z z z z z z z z z z z z z z z z z z z z z z z z z z z z z [ z z n 9 a v.",
"h c N W N +.i b.z z z z z z z z z z z z z z z z z z z z z z z z z z z z z z z z z z z z z z z z z z z z z z z z z z z z :.u s *.",
"K n.c B l z z z z z z z z z z z z z z z z z z z z z z z z z z z z z z z z z z z z z z z z z z z z z z z z z z z z z z z z ~ @ T ",
"O s s 8 J z z z z z z z z z z z z z z z z z z z z z z z z z z z z z z z z z z z z z z z z z z z z z z z z z z z z z T > W M X.4 ",
"< a 9 k J z z z z z z z z z z z z z z z z z z z z z z z z z z z z z z z z z z z z z z z z z z z z z z z z z z z z [ r.m.K 9 3 M.",
"1 %.m k J z z z z z z z z z z z z z z z z z z z z z z z z z z z z z z z z z z z z z z z z z z z z z z z z z z z z z z l 4 x %.1 ",
"k.w 9 ^ l z z z z z z z z z z z z z z z z z z z z z z z z z z z z z z z z z z z z z z z z z z z z z z z z z z N.Q B.z J 8 9 3 M.",
") D F :.z [ z z z z z z z z z z z z z z z z z z z z z z z z z z z z z z z z z z z z z z z z z z z z z z z z z z N.> z J V.s s r ",
"_ ~ h J J ^ W z z z z z z z z z z z z z z z z z z z z z z z z z z z z z z z z z z z z z z z z z z z z z z z z z z z z z K 4 C.W ",
"*.: 9 +.+.9 Z.| z z z z z z z z z z z z z z z z z z z z z z z z z z z z z z z z z z z z z z z z z z z z z z z z z z z z :.D h 5.",
"&.a h z l O._ > z z z z z z z z z z z z z z z z z z z z z z z z z z z z z z z z z z z z z z z z z z z z z z z z z z z z n 9 a v.",
"1 q.h.( z z z z z z z z z z z z z z z z z z z z z z z z z z z z z z z z z z z z z z z z z z z z z z z z z z z z z z z z n x %.1 ",
"2 ;.9 n z z z z z z z z z z z z z z z z z z z z z z z z z z z z z z z z z z z z z z z z z z z z z z z z z z z z z z z A.> 9 $.#.",
"u M u W z z z z z z z z z z z z z z z z z z z z z z z z z z z z z z z z z z z z z z z z z z z z z z z z z z z z z z J @ Z.k s 3 ",
"| J 5.Q l z z z z z z z z z z z z z z z z z z z z z z z z z z z z z z z z z z z z z z z z z z z z z z z z z z z z [ h.S.| { D.Q ",
"s 9 9 k J z z z z z z z z z z z z z z z z z z z z z z z z z z z z z z z z z z z z z z z z z z z z z z z z z z z z z @ 5.Y 4 C.~ ",
"q.6.9 k J z z N.Q F.z z z z z z z z z z z z z z z z z z z z z z z z z z z z z z z z z z z z z z z z z z z z z z z z z [ n y.O f.",
"1 G.m k J z z z T > z z z z z z z z z z z z z z z z z z z z z z z z z z z z z z z z z z z z z z z z z z z z z z z z z l j.x G.1 ",
"3.& 9 4 l z z z z z z z z z z z z z z z z z z z z z z z z z z z z z z z z z z z z z z z z z z z z z z z z z z z z z z J k 9 & 3.",
"y.u S.W z z z z z z z z z z z z z z z z z z z z z z z z z z z z z z z z z z z z z z z z z z z z z z z z z z z z z z z J 1.9 9 d ",
"i l Q J z z z z z z z z z z z z z z z z z z z z z z z z z z z z z z z z z z z z z z z z z z z z z z z z z z z z z z z z n M D c ",
"4.9 9 n z z z z z z z z z z z z z z z z z z z z z z z z z z z z z z z z z z z z z z z z z z z z z z z z z z z z z z z z z z i H.",
"J.7 x ] z z z z z z z z z z z z z z z z z z z z z z z z T T z z z z z z z z z z z z z z z z z z z z z z z z z z z z z J g.w.e.e.",
"2 e 9 1.J z z z z z z z z z z z z z z z z z z z z z z J 1.B K.z z z z z z z z z z z z z z z z z z z z z z z z z z z z w.9 s 9 3 ",
"~ >.4 L.T z z z z z z z z z z z z z z z z z z z z z z T 4 H / b.z z z z z z z z z z z z z z z z z z z z z z z z z z z P.9 9 p.2 ",
"5.h D :.z z z z z z z z z z z z z z z z z z z z z z z z _ z z z z z z z z z z z z z z z z z z z z z z z z z z z z z z P.9 x %.1 ",
"&.: s 9.J z z z z z z z z z z z z z z z z z z z z z z z z z z z z z z z z z z z z z z _ [ J W T z z z z z z z z z z z ) 9 9 *.f.",
"I.9 9 k J z z z z z z z z z z z z z z z z z z z z z z z z z z z z z z z z z z z z z z  .] j.9 z [ z z z z z z z z z z J k 9 9 : ",
"$.8 8 1.J z z z b.l l z z z z z z z z z z l l b.z z z z z z z z z z l l z z z z z z z U R | 7.l.z z z z z z z z z z z T 5.j.5.z ",
"@.z Q  .K z J +.F u u U.T K K K O.J z L  .u u F H J O.K K O.T z P 7.v u R J J O.K K K H K z I Y.v 4 T K K K K K z T O.R * u 0.T.",
"S.k k k u +.X.g 9 9 9 Y.Z.8 8 V 8 G R.M 8 9 9 9 N + 9 V V 8 X.:.1.x 9 9 s h h 9 V V 8 ^ @ 8 x 9 9 s + R 8 V V k  .7.g m 9 9 8 E.",
"9 ;.%.W.2.7.5.2.W.%.;.u i 9 Q.%.!.: R.D a ; ; ~.4 > : !.%.Q.9 z v ;.%.W.O + + O W.%.;.1.z 9 Q.%.!.: > 4 ~.; ; a D O.: !.%.Q.9 ^.",
"/.(.).3.; + + ; 3.).(._.= ;.z.).3.`.Y , &.).).&., Y `.3.).z.;.= _.(.).3.; @ @ ; 3.).(._.= ;.z.).3.`.Y , &.).).&., Y `.3.).z.;.H.",
"y.6.*.*.O + + O 6.*.2.1.i s 6.*.*.'.> 4 2.6.*.].X.> '.6.*.*.s i u 6.*.*.r + + O 6.*.*.u i s 6.*.2.r > 4 2.6.*.2.4 > '.6.*.2.[.{.",
"9 9 w.c 9 + + : 1.B B }.= 9 9 X.X.: > 4 s U B c O.5 : 8 c w.9 i u 9 w.B c Y + : 1.B U u i 9 9 h.B c ..4 s U B S.4 > : 8 c B B |.",
"{ { J z { ` `  X+.[ [ K..X{ { l l U.XXz U.R.[ [ i oXU.@ z J { OXW { J [ +X^.<. X+.[ R.W OX{ { T [ > OX-.U.R.[ n -.XXU.@ z [ T @X"
};
