/* XPM */
static char *_cead7124bca402f80c71167399c9f23rw6bKeuM3LRZyV9J[] = {
/* columns rows colors chars-per-pixel */
"64 64 195 2 ",
"   c #020202",
".  c #0B0B0B",
"X  c #080708",
"o  c #141313",
"O  c #1C1C1C",
"+  c #221B1F",
"@  c #231619",
"#  c #20201F",
"$  c #081926",
"%  c #091D2C",
"&  c #081826",
"*  c #251D22",
"=  c #281F24",
"-  c #0A2234",
";  c #0E2A3E",
":  c #0C2639",
">  c #262325",
",  c #2A2126",
"<  c #27252A",
"1  c #2C252A",
"2  c #2C2B2D",
"3  c #30272C",
"4  c #312A2E",
"5  c #302627",
"6  c #262A35",
"7  c #2D2E31",
"8  c #292E3C",
"9  c #332E32",
"0  c #2E3333",
"q  c #2E3639",
"w  c #333335",
"e  c #393236",
"r  c #313A37",
"t  c #333639",
"y  c #3B363A",
"u  c #333B3A",
"i  c #3C3B3D",
"p  c #40373C",
"a  c #413B3E",
"s  c #34403D",
"d  c #3F433F",
"f  c #0F2C42",
"g  c #102E44",
"h  c #0F3249",
"j  c #10334B",
"k  c #133B55",
"l  c #143E5C",
"z  c #103650",
"x  c #293749",
"c  c #323B43",
"v  c #3D3D42",
"b  c #433E41",
"n  c #14405E",
"m  c #374241",
"M  c #3A4343",
"N  c #3C4847",
"B  c #3E4748",
"V  c #3E4A49",
"C  c #344048",
"Z  c #2A425B",
"A  c #334757",
"S  c #154263",
"D  c #17476B",
"F  c #19476A",
"G  c #19486B",
"H  c #17486C",
"J  c #1A4E73",
"K  c #1B5176",
"L  c #1D557D",
"P  c #1E587F",
"I  c #345D75",
"U  c #365566",
"Y  c #3D6278",
"T  c #454145",
"R  c #494447",
"E  c #44454A",
"W  c #4B4649",
"Q  c #424C4D",
"!  c #4E4A4D",
"~  c #514D4F",
"^  c #444F50",
"/  c #4A4D53",
"(  c #534E51",
")  c #455152",
"_  c #4A5356",
"`  c #4C5659",
"'  c #4E595C",
"]  c #555154",
"[  c #595456",
"{  c #50565D",
"}  c #5C565A",
"|  c #515A5F",
" . c #5E585B",
".. c #62605D",
"X. c #4A5A60",
"o. c #545D63",
"O. c #585F64",
"+. c #576167",
"@. c #5C6265",
"#. c #576269",
"$. c #596369",
"%. c #5B646B",
"&. c #59646A",
"*. c #5B666C",
"=. c #5A666D",
"-. c #5A656C",
";. c #5B666C",
":. c #4C667A",
">. c #4E697A",
",. c #486274",
"<. c #566772",
"1. c #586770",
"2. c #556975",
"3. c #536B7B",
"4. c #616262",
"5. c #1E5780",
"6. c #1E5981",
"7. c #1F5D89",
"8. c #205C86",
"9. c #205E8B",
"0. c #305C81",
"q. c #1E6191",
"w. c #1F679B",
"e. c #21618C",
"r. c #2D668F",
"t. c #366684",
"y. c #33688E",
"u. c #3F6D8D",
"i. c #32658D",
"p. c #226493",
"a. c #236799",
"s. c #256A9C",
"d. c #2B6A9A",
"f. c #3B6F93",
"g. c #346F9A",
"h. c #336B96",
"j. c #2E719E",
"k. c #3B7093",
"l. c #35719C",
"z. c #38729A",
"x. c #266EA2",
"c. c #2B6FA2",
"v. c #2771A6",
"b. c #2B72A5",
"n. c #2673AC",
"m. c #2974AB",
"M. c #3172A3",
"N. c #3A7EAC",
"B. c #2575B1",
"V. c #2A77B1",
"C. c #2679B4",
"Z. c #2A7AB4",
"A. c #2C7EBA",
"S. c #327CB2",
"D. c #4A6A81",
"F. c #436C89",
"G. c #426C87",
"H. c #4E738E",
"J. c #527186",
"K. c #50738B",
"L. c #4C7693",
"P. c #4A7A9B",
"I. c #447698",
"U. c #467FA6",
"Y. c #457EA5",
"T. c #2D81BD",
"R. c #3C87BC",
"E. c #3E89BD",
"W. c #3385BD",
"Q. c #4582AC",
"!. c #4484B2",
"~. c #2E85C3",
"^. c #2F89C9",
"/. c #2D87C8",
"(. c #3086C4",
"). c #3489C6",
"_. c #3B8AC3",
"`. c #338CCD",
"'. c #3B8DCA",
"]. c #3690CF",
"[. c #328FD1",
"{. c #3391D5",
"}. c #3A94D4",
"|. c #3395DB",
" X c #3598DE",
".X c #3997DC",
"XX c #2F97E0",
"oX c #369BE3",
"OX c #389DE6",
"+X c #359EE9",
"@X c #399FE8",
"#X c #3096E0",
"$X c #39A2EC",
"%X c #3BA6F3",
"&X c #35A6F5",
/* pixels */
"> a ! p 2 0 s N Q Q N u 0 0 0 t u B ) ) ) ) ) ) ) ) Q i c u 4 4 1 , 7 w t t t t u M Q ) ) ) ) ) B w 2 0 u N Q Q N s 0 2 a ~ R 2 ",
"y T p 9 9 t m Q ` ` Q m u u u u N ) ' o.o.o.o.o.o.o.` d t.g.m C c t w u u u u u M Q ' o.o.o.o.o./ i w t m Q ` ` Q m t 9 9 a W ! ",
"T y 1 3 9 t M ) o.o._ Q B B B V ^ ' +.%.%.%.%.%.%.$.o.Q Y R.).{.`.`.U M B B B B Q _ o.%.%.%.%.$.{ E v B Q _ o.o.) m t 9 3 1 y } ",
"R e , 1 9 t M ) o.+.o.' ` ` ' ' ' o.%.*.*.*.*.*.*.*.+.o.' _ F.).{.|.`.,.X.' ` ` ' o.#.*.*.*.*.$.o.{ _ _ ` o.$.o.) m t 9 1 , e  .",
"! e , 1 9 t M ) o.%.$.+.+.+.+.+.#.%.*.*.*.*.*.*.*.*.%.$.+.+.+._ k.{.{.{.'.#.+.#.+.$.%.*.*.*.*.*.$.+.+.+.+.$.%.o.) m t 9 1 , e  .",
"! e , 1 9 t M ) o.*.*.*.*.*.*.*.*.*.*.*.*.*.*.*.*.*.*.*.*.1.=.o._ N. X|.].2.%.*.*.*.*.*.*.*.*.*.*.%.*.*.*.*.*.o.) m t 9 1 , e } ",
"W e , 1 9 t M ) o.*.*.*.*.*.*.*.*.*.*.*.*.*.*.*.*.*.*.%.D.b.b.b.j.(.{.{.|._.*.*.*.*.*.*.*.*.*.*.*.*.*.*.*.*.*.o.) m t 9 1 , e [ ",
"W e , 1 4 t v ^ o.*.*.*.*.*.*.*.*.*.*.*.*.*.*.*.*.*.*.%.F.B.n.n.m.m.V.`.|.`.2.%.*.*.*.*.*.*.*.*.*.*.*.*.*.*.*.o.Q u w 4 1 , w ] ",
"T e = , 1 9 u Q o.*.*.*.*.*.*.*.*.*.*.*.*.*.*.*.*.*.%.D.m.m.m.m.n.m.m.`.{.{.R.*.%.*.*.*.*.*.*.*.*.*.*.*.*.*.*.o.Q u 2 1 , = 9 ! ",
"a y 1 , , 1 w E o.%.*.*.*.*.*.*.*.*.*.*.*.*.*.*.*.%.>.b.n.m.m.m.m.m.m.m.`.|.{.z.*.%.*.*.*.*.*.*.*.*.*.*.*.*.*.o.E w 1 , = 1 y T ",
"w b a 2 * , 9 T | %.*.*.*.*.*.*.*.*.*.*.*.*.*.*.*.%.D.n.n.m.m.m.e.s.m.b.a. X@X`.f.%.*.*.*.*.*.*.*.*.*.*.*.*.*.| T 9 , * 4 a b 9 ",
"o e ! y * * 2 v | %.*.*.*.*.*.*.*.*.*.*.*.*.*.*.%.3.b.m.m.a.6.7.6.6.7.7.6.{.@XZ.l.%.*.*.*.*.*.*.*.*.*.*.*.*.*.{ v 2 * * i ~ e o ",
". 2 ! b > * 2 v | %.*.*.*.*.*.*.*.*.*.*.*.*.*.%.2.M.B.s.6.6.L L L L L L L p.oX`.m.f.%.*.*.*.*.*.*.*.*.*.*.*.*.' v 2 * * b ( 2 . ",
"O e ! y > < w B | *.*.*.*.*.*.*.*.*.*.*.*.%.<.z.M.n.m.a.L P L L 6.L 6.6.L 7.oX{.n.z.%.*.*.*.*.*.*.*.*.*.*.*.*.o.B 0 > = y ! y O ",
"4 i y 2 > 7 u Q o.*.*.*.*.*.*.*.*.*.*.*.*.%.2.m.n.m.a.s.`.`.s.L 6.P 6.6.L 7.oXoX/.m.F.%.*.*.*.*.*.*.*.*.*.*.*.o.Q u 2 > 2 y b i ",
"a e 1 > 2 t B _ +.*.*.*.*.*.*.*.*.*.*.*.*.%.2.b.m.s.a.{.$X@Xm.L K H H L 6.L x.@X`.n.n.F.%.*.*.*.*.*.*.*.*.*.*.o._ B t 2 , 1 y ] ",
"T w 1 2 t B _ o.+.*.*.*.*.*.*.*.*.*.*.*.*.%.<.m.n.m.{.oXoXA.L H F F F H J L 7.oX`.n.n.f.%.*.*.*.*.*.*.*.*.*.*.$.| _ B t 2 < e } ",
"R e 2 0 m ) o.#.%.*.*.*.*.*.*.*.*.*.*.*.%.*.f.Z.^.{.@X XT.L F F F F F F n n 9.@X(.9.n.f.@.*.*.*.*.*.*.*.*.*.*.%.#.o.) M 0 2 y } ",
"W y 2 t B ` +.*.*.*.*.*.*.*.*.*.*.*.*.*.%.<.b.Z. XoX X~.8.J H F F F F n k k 9.oX{.T.n.b.D.%.*.*.*.*.*.*.*.*.*.*.*.+.` N r 2 y  .",
"W y 2 t B ` +.*.*.*.*.*.*.*.*.*.*.*.*.*.%.<.c.Z.oX X~.9.L K F F F F n k k k J $X^.s.n.B.f.%.%.%.*.*.*.*.*.*.*.*.%.#.` N r 2 y  .",
"R e 2 t B ` +.*.*.*.*.*.*.*.*.*.*.*.*.*.%.2.).|.$X`.9.L L H F F F F l k k k k 7.|.Z.n.n.u.4.H.K.@.*.*.*.*.*.*.*.%.#.` B t 2 y  .",
"W e 1 w M _ +.*.*.*.*.*.*.*.*.*.*.*.*.*.%.*.}.%X[.e.L 6.J F F F F S k k k k n m.@X`.p.B.f.4.U.P.@.*.*.*.*.*.*.*.%.+._ M 0 1 e } ",
"W e 1 4 i / o.*.*.*.*.*.*.*.*.*.*.*.*.%.%.Q.@X[.p.L 6.6.J F H F F l k k k f z 8.7.a.s.B.f...P.'.3.%.*.*.*.*.*.*.%.+./ i 2 , e } ",
"W e , 3 y / o.*.*.*.*.*.*.*.*.*.*.*.*.*.U.|.oX).L 6.P 6.J F F F S k k k j ; ; ; k 9.c.w.u.3._.#XL.@.*.*.*.*.*.*.%.+./ y 4 , e } ",
"! e , 3 y / o.*.*.*.*.*.*.*.*.*.*.*.%.1.'.|.`.s.6.6.6.6.K F F F l k k k f ; g ; j 8.8.q.G.L.#X|.L.@.*.*.*.*.*.*.*.+./ y 2 , e [ ",
"! e , 3 y / o.%.%.*.*.*.*.*.*.*.*.*.%.$._.|.Z.L P 5.6.L H F F F l k k j f ; - : H 6.L q.z.N.|.|.L.@.*.*.*.*.*.%.%.o./ y 3 , e [ ",
"! e , 3 e E ` o.$.*.*.*.*.*.*.*.*.*.%.P.`.~.x.P P L 6.K F H F S k k k f ; - & % l 6.L e.n.T.{.|.L.@.*.*.*.*.*.$.o.` E e 3 , e [ ",
"! e , 3 w v Q ` +.*.*.*.*.*.*.*.*.%.*.'.{.m.x.P P P 6.K F H F l k k j f ; % % & - L 7.s.Z.`.{.|.L.@.*.*.*.*.*.o.` Q i w 1 , e [ ",
"! e , 1 9 t N ) o.*.*.*.*.*.*.*.*.*.*._.{.m.x.5.L 6.6.K D F H l k k f ; ; % % $ - L e.m.T.|.|.!.2.%.*.*.*.*.*.o.) m u 9 1 , w ( ",
"! e , 1 9 t M ) o.*.*.*.*.*.*.*.*.*.*._.|.m.x.5.L L 6.K D F H l k k g ; ; % $ % l L e.m.m.^.|.L.@.*.*.*.*.*.*.o.) m t 9 1 , e ( ",
"! e , 1 9 t M ) o.*.*.*.*.*.*.*.*.*.*._./.n.x.5.L L 6.K F F F n k k f ; ; % $ - 6.6.7.s.Z.^.|.L.@.*.*.*.*.*.*.o.) m t 4 1 , w ( ",
"! e , 1 2 w i ^ o.*.*.*.*.*.*.*.*.*.*._.B.m.x.5.L L 6.K F H F n k k g ; ; % $ - L 6.L 7.T.|.|.L.@.*.*.*.*.*.*.o.Q u w 4 , , w ~ ",
"W e = = 1 7 u Q o.*.*.*.*.*.*.*.*.%.*._.C.m.v.5.P P 6.K F H H n k k g ; ; % $ - L 6.L 7.T.{.|.P.@.*.*.*.*.*.*.| E t 2 1 = = 9 ! ",
"T i 1 * = 1 w E o.$.*.*.*.*.*.*.*.%.*._.C.m.x.5.L L 6.K F F F n k k g ; ; % $ - L 5.6.a.A. XE.3.%.*.*.*.*.*.*.| E 9 1 * = 2 y b ",
"w W R 9 * = 9 T | %.*.*.*.*.*.*.*.*.*.E.z.b.x.5.6.L 6.K F F F l k k g ; ; - $ - L L e.Z./.|.L.@.*.*.*.*.*.*.*.| T 4 = * 9 T b > ",
"o y [ b * * 2 v | %.*.*.*.*.*.*.*.%.*.E.2.b.x.L L L 6.K H F F l k k j ; f f - : L L 7.A.|.|.P.@.*.*.*.*.*.*.*.{ v 1 * * a ! 2 . ",
"  > ~ R , , 9 E o.%.*.*.*.*.*.*.*.*.*.P.2.b.x.7.a.5.6.K F H F l k k k f ; f ; h L L 8.A.{.XXP.@.*.*.*.*.*.*.*.' v 1 + * T T o   ",
"  O W R 2 w T _ o.*.*.*.*.*.*.*.*.*.*.@.*.b.x.a.(.K 6.K F H F l k k k f ; f ; h L 6.p.A.|._.J.%.*.*.*.*.*.*.*.' v , + = b i o   ",
"  O ! W 9 B { o.%.*.*.*.*.*.*.*.*.*.*.J.<.b.x.e.).p.6.K F F F S k k k h f ; ; h L 9.b.A.+XY.@.*.*.*.*.*.*.*.*.{ v 1 + , T i o   ",
"o e [ T w Q o.*.*.*.*.*.*.*.*.*.*.*.*.P.2.M.x.a.oXT.K L H F F H l k k k h g f h L e.A.`.&XQ.@.*.*.*.*.*.*.*.*.{ B 2 > 1 T W > X ",
"2 T W y y / o.*.*.*.*.*.*.*.*.*.*.*.*.@.1.b.n.m.^.`.9.5.K F F F k k k k k k k S L p. X$X}.H.%.*.*.*.*.*.*.*.*.o.Q t 0 0 i R y > ",
"y y 9 4 y / o.$.%.*.*.*.*.*.*.*.*.*.*.%.*.f.m.s.a.%XT.L K F F F S k k k k k l 5.L p.oX&X!.@.*.*.*.*.*.*.*.*.*.o.^ m u u t e y i ",
"T e 1 3 e E _ o.$.*.*.*.*.*.*.*.*.*.*.*.%.*.b.s.a.%X/.L K H F F H l k k k k l L L n.$X.XL.%.*.*.*.*.*.*.*.*.*.o.) m s s 0 2 e ! ",
"R e , 1 w i Q ` o.*.*.*.*.*.*.*.*.*.*.*.%.<.b.s.p.@X/.K 6.K H F H S k k k k k L s. X+XQ.@.*.*.*.*.*.*.*.*.*.*.o.) m s s 0 2 e ( ",
"W e , 1 9 t m ) o.*.*.*.*.*.*.*.*.*.*.*.%.<.n.x.a. X`.7.L 6.J F F F k k k k n 7. X@X|.U.%.*.*.*.*.*.*.*.*.*.*.o.) m u u 0 2 e ( ",
"W e , 1 9 t M ) o.*.*.*.*.*.*.*.*.*.*.*.%.1.l.m.v.A.%X(.K 6.K F F F l k k k L s.$X@X/.f.%.%.*.*.*.*.*.*.*.*.*.o.) M u t 7 1 e ( ",
"W e , 1 9 t M ) o.*.*.*.*.*.*.*.*.*.*.*.*.%.2.m.n.A.%XT.L P 6.J F F F F l l a.@X X(.B.k.%.*.*.*.*.*.*.*.*.*.*.o.) m r w 2 1 w ! ",
"W e , 1 9 t M ) o.*.*.*.*.*.*.*.*.*.*.*.*.%.<.l.b.T.$XA.L 6.6.J F F H F F L {.oXn.m.m.F.%.*.*.*.*.*.*.*.*.*.*.o.) m t 9 1 , 9 W ",
"W e , 1 9 t M ) o.%.*.*.*.*.*.*.*.*.*.*.%.*.%.3.v.A.%XT.K 6.L 5.J F F H L p.oX|.m.n.f.%.*.%.%.%.%.*.*.*.*.*.%.o.) m t 9 1 , 9 R ",
"W e , 1 9 t M ^ | +.%.*.*.*.*.*.*.*.*.$.+.+.$.<.b.Z.oX/.L L L P J H H L 6..XoXm.m.B.f.@.#.o.o.o.o.$.*.*.*.%.#.| ^ m t 4 1 , 9 T ",
"W e , 1 9 t s B ) ' +.%.*.*.*.*.*.*.$.o.` ` o.$.>.Z. X@XV.L P P L L L L 6.(.Z.n.b.b.u.O.{ / E E / o.%.*.%.+.' ) B s 0 2 , = 9 b ",
"W e , 1 9 t u m N ) | $.%.%.%.%.%.%.+.` T T _ O.2.b.~.$XoXb.L 6.6.6.P L 6.7.b.n.g.%.$.| E i w 9 v ` $.*.$.| ^ N m u 0 1 = , 9 y ",
"! e , 1 2 w t u m V _ | o.o.o.o.o.o.' Q y y E ` o.:.n./.$Xn.L 6.L L 6.6.x.m.m.n.g.| | _ v 9 1 , 9 Q ' o.' ) M t t r 7 , 3 y y 2 ",
"! e = , 1 2 w t u m V ) ) ) ) ) ) ) Q v 9 4 y E ] :.n.~.$X/.v.p.L 6.a.m.m.m.m.m.y.^ ) E y 4 , > 2 M Q ) Q N t 7 7 0 2 , y W w o ",
"! e * * , 1 4 t t u m m m m m m m m s t 1 , 4 y T :.W.b.`.oXT.v.v.b.m.m.m.n.b.r.m m m i w 2 , * < t s m m t 2 1 1 2 , , b T O   ",
"! e * * , , 1 2 0 0 t t u s s s s u t 2 > = 1 9 v _ X.Y T.|.{.A.m.m.n.m.m.d.6 7 t u u t w 4 , * > 2 0 0 0 0 2 1 1 1 = = y T > . ",
"! e , , , , , > 1 2 2 w t u s s u t w 2 > * , 4 t B Q Q I ^.|.{.A.b.m.m.d.6 * 1 w t u t w 4 , * * > < < 1 2 0 0 2 > * * 4 y w + ",
"W e , 1 1 , * * * > 1 2 0 t r t t w 9 1 = * , 2 w u m u I {.{.|.A.n.b.d.x i.< 1 5 A f.w w 4 , * * > > > < 2 0 r 7 > * * = 1 w w ",
"W e , 1 3 1 , * * * , 1 2 2 2 2 0 0 w 2 > * = 1 7 t s s u t. X{.{.Z.x , > S.< > 4 w c w 9 4 , * * < 2 2 2 0 t u 0 2 2 1 , = 9 i ",
"R y 3 3 3 3 1 , * * * * > > > > 2 0 t 7 > * * > 2 r u s u w y. X{.[.8 0.S.`.h., 3 4 3 9 4 3 , * > 7 0 t r t u u r 0 0 2 1 , 9 a ",
"b ! b 9 3 3 3 , * * * > > > > < 2 2 0 2 > * * * 2 0 u u u w 1 h. X{.S.{.oX).x = 1 1 1 1 1 1 , , 1 0 t u u u u t t t w 9 1 , 9 i ",
"2 ! } a 1 1 1 , * * , 1 2 7 0 0 0 2 2 > * + + * , 7 t t u 0 , 6 8 M.+X`.x 6 @ * = = , , , , , 1 1 4 w t u u t w w w 9 4 1 , 9 i ",
". w [ R 1 1 1 , * * , 2 w t t t 0 2 > * * + * * , 2 7 t r 2 < * + < M.Z @ @ * * * * * * * * , 1 3 4 9 t t t w 9 9 4 4 3 1 , 9 a ",
"  # ! R , , 1 , * * 1 4 9 t t t w 2 , * * * * = , 1 1 2 7 2 , 1 < > 8 , * = * > 1 1 , * * * * , 1 3 4 w t w 9 4 4 4 3 1 , = 9 b "
};
