/* XPM */
static char *_4ef5796e8864274c7937f4bcc2f63ccjsJ6DYCytH3T8sBr[] = {
/* columns rows colors chars-per-pixel */
"64 64 135 2 ",
"   c None",
".  c #221A1F",
"X  c #251D22",
"o  c #281F24",
"O  c #262225",
"+  c #2A2126",
"@  c #272628",
"#  c #2D252A",
"$  c #2C2B2D",
"%  c #30272C",
"&  c #312A2E",
"*  c #2E2E31",
"=  c #332E31",
"-  c #382F34",
";  c #2E3433",
":  c #2F3837",
">  c #323435",
",  c #3A3236",
"<  c #313937",
"1  c #343638",
"2  c #3B3539",
"3  c #333B3A",
"4  c #3C3A3D",
"5  c #403A3E",
"6  c #34413E",
"7  c #38403F",
"8  c #3E3D42",
"9  c #443D42",
"0  c #364341",
"q  c #3A4443",
"w  c #3B4847",
"e  c #3E4748",
"r  c #3E4949",
"t  c #434245",
"y  c #484246",
"u  c #43444A",
"i  c #4C464A",
"p  c #434C4E",
"a  c #4A484A",
"s  c #4F484C",
"d  c #4E4A4D",
"f  c #4F494E",
"g  c #4F4B4E",
"h  c #4F4C4F",
"j  c #494A4E",
"k  c #514A4E",
"l  c #434F50",
"z  c #444E50",
"x  c #464F51",
"c  c #454D50",
"v  c #4B4D53",
"b  c #4A4D53",
"n  c #504F50",
"m  c #544C50",
"M  c #554D51",
"N  c #564F52",
"B  c #544E51",
"V  c #435050",
"C  c #445051",
"Z  c #445151",
"A  c #445052",
"S  c #455152",
"D  c #455153",
"F  c #465153",
"G  c #455253",
"H  c #465253",
"J  c #455152",
"K  c #485254",
"L  c #485355",
"P  c #4C5257",
"I  c #485456",
"U  c #495557",
"Y  c #495356",
"T  c #4C575A",
"R  c #4C575B",
"E  c #4B5659",
"W  c #4D585C",
"Q  c #4D595C",
"!  c #4D595D",
"~  c #4F595E",
"^  c #4E595D",
"/  c #525053",
"(  c #555256",
")  c #565456",
"_  c #565054",
"`  c #595357",
"'  c #595457",
"]  c #50565D",
"[  c #5B575A",
"{  c #51595F",
"}  c #5F595D",
"|  c #615A5E",
" . c #615B5E",
".. c #515B60",
"X. c #545B61",
"o. c #525C61",
"O. c #525D62",
"+. c #545D63",
"@. c #545E64",
"#. c #555F65",
"$. c #545D63",
"%. c #635D61",
"&. c #625E61",
"*. c #655E63",
"=. c #635D61",
"-. c #556064",
";. c #566066",
":. c #566166",
">. c #586167",
",. c #576168",
"<. c #586268",
"1. c #5A636A",
"2. c #5A646B",
"3. c #5B656C",
"4. c #5B656C",
"5. c #656165",
"6. c #676064",
"7. c #676165",
"8. c #686165",
"9. c #696366",
"0. c #696468",
"q. c #6A6468",
"w. c #6B666A",
"e. c #6E676A",
"r. c #6B6669",
"t. c #6D6A6D",
"y. c #6F6B6E",
"u. c #6E696B",
"i. c #706A6E",
"p. c #716C6F",
"a. c #736E71",
"s. c #736D71",
"d. c #767175",
"f. c #797376",
"g. c #7B7679",
/* pixels */
"          %.i 9 9 9 5 i       M 9 4 4 5 5 4 5 4 4 4 4 2 2 2 4           > , , , , , 2 2 2 2 2 9 `         , 2 2 4 y 6.          ",
"        t./ 1 $ $ $ $ 4 )   *.9 = # $ $ $ $ $ $ $ $ $ # # # & 9     d - # + + + + # @ $ @ $ $ > i 0.  m 2 @ $ $ $ 1 _ t.        ",
"      %.h t < ; ; ; ; 3 t d y 2 & $ ; ; ; ; ; ; ; ; ; $ # # # , 9 y 4 = # # # # # $ ; ; ; ; ; < 8 a i t 3 ; ; ; ; 1 t d *.      ",
"    e.i > < 3 6 0 0 6 3 < > & = > 3 0 w w w w w w 0 4 1 = & & & & $ & & & & & & = 1 0 w w w w 0 4 > = < 3 6 0 0 6 3 < > d i.    ",
"  6.M 2 $ < 6 r S V w 6 : ; ; < 3 e S I I I I I I I p 0 3 < < > $ # $ < < < < < 3 e z I I I I L u > $ ; 3 w V V r 6 ; $ 2 M 0.  ",
"8.y , & = < 0 l Q Q p w 0 0 0 0 r L $.;.;.;.;.;.;.@.Q p 0 0 7 3 > = 1 4 0 0 0 0 w z Q ;.;.;.;.$.P 8 2 3 0 V Q Q p 0 < & & , y a.",
"| 2 # # = 1 0 S $.@.T S S S S S I X.1.3.3.3.3.3.3.2.;.T S S p e 4 3 q p S S S S S Q ;.3.3.3.3.1.X.v u p z T @.$.S 0 < = # # 2 0.",
"| , + # = 1 0 S $.1.;.$.$.$.$.$.@.,.2.3.3.3.3.3.3.3.2.;.$.$.$.I e q z Q $.$.$.$.$.;.1.3.3.3.3.2.1.$.X.X.$.;.1.$.S 0 < = # + , 0.",
" .2 + # = 1 0 S $.3.3.2.2.2.2.2.2.3.3.3.3.3.3.3.3.3.3.3.2.2.1.$.L S Q ;.2.2.2.2.2.3.3.3.3.3.3.3.3.2.2.2.2.3.3.$.S 0 < = # + , e.",
"| , + # = < 0 S $.3.3.3.3.3.3.3.3.3.3.3.3.3.3.3.3.3.3.3.3.3.2.;.$.$.@.1.3.3.3.3.3.3.3.3.3.3.3.3.3.3.3.3.3.3.3.$.S 0 < = # + , 0.",
"| , + # & < 4 z $.3.3.3.3.3.3.3.3.3.3.3.3.3.3.3.3.3.3.3.3.3.3.2.1.1.2.2.3.3.3.3.3.3.3.3.3.3.3.3.3.3.3.3.3.3.3.$.p 4 > $ + + , 0.",
"} , + + # $ 1 p X.2.3.3.3.3.3.3.3.3.3.3.3.3.3.3.3.3.3.3.3.3.3.3.3.3.3.3.3.3.3.3.3.3.3.3.3.3.3.3.3.3.3.3.3.3.3.X.p 3 $ # o + , 8.",
"*.9 & + o # > u X.2.3.3.3.3.3.3.3.3.3.3.3.3.3.3.3.3.3.3.3.3.3.3.3.3.3.3.3.3.3.3.3.3.3.3.3.3.3.3.3.3.3.3.3.3.3.{ u - # o + & 9 u.",
"  *.k - X + = t { 2.3.3.3.3.3.3.3.3.3.3.3.3.3.3.3.3.3.3.3.3.3.3.3.3.3.3.3.3.3.3.3.3.3.3.3.3.3.3.3.3.3.3.3.3.3.{ 9 & o X > k 6.  ",
"    0.9 X X $ 8 { 2.3.3.3.3.3.3.3.3.3.3.3.3.3.3.3.3.3.3.3.3.3.3.3.3.3.3.3.3.3.3.3.3.3.3.3.3.3.3.3.3.3.3.3.3.3.{ 8 $ X X 9 e.    ",
"    | 5 O O * e { 2.3.3.3.3.3.3.3.3.3.3.3.3.3.3.3.3.3.3.3.3.3.3.3.3.3.3.3.3.3.3.3.3.3.3.3.3.3.3.3.3.3.3.3.3.3.{ e * O o 5 %.    ",
"  M 9 & O $ 3 p $.3.3.3.3.3.3.3.3.3.3.3.3.3.3.3.3.3.3.3.3.3.3.3.3.3.3.3.3.3.3.3.3.3.3.3.3.3.3.3.3.3.3.3.3.3.3.$.p 3 $ O & 9 _   ",
"| 2 # @ $ < e I ;.3.3.3.3.3.3.3.3.3.3.3.3.3.3.3.3.3.3.3.3.3.3.3.3.3.3.3.3.3.3.3.3.3.3.3.3.3.3.3.3.3.3.3.3.3.3.@.L e < $ + # 4 u.",
"} , # $ < r I $.1.3.3.3.3.3.3.3.3.3.3.3.3.3.3.3.3.3.3.3.3.3.3.3.3.3.3.3.3.3.3.3.3.3.3.3.3.3.3.3.3.3.3.3.3.3.3.1.$.I r < $ # , 0.",
"| 2 $ ; w L $.1.2.3.3.3.3.3.3.3.3.3.3.3.3.3.3.3.3.3.3.3.3.3.3.3.3.3.3.3.3.3.3.3.3.3.3.3.3.3.3.3.3.3.3.3.3.3.3.2.1.@.L 0 ; $ 2 e.",
"| 2 $ < w T ;.3.3.3.3.3.3.3.3.3.3.3.3.3.3.3.3.3.3.3.3.3.3.3.3.3.3.3.3.3.3.3.3.3.3.3.3.3.3.3.3.3.3.3.3.3.3.3.3.3.3.;.T w < $ 2 0.",
"| 2 $ < w T ;.3.3.3.3.3.3.3.3.3.3.3.3.3.3.3.3.3.3.3.3.3.3.3.3.3.3.3.3.3.3.3.3.3.3.3.3.3.3.3.3.3.3.3.3.3.3.3.3.3.3.;.T e < $ 2 0.",
"| 2 $ > e P ;.3.3.3.3.3.3.3.3.3.3.3.3.3.3.3.3.3.3.3.3.3.3.3.3.3.3.3.3.3.3.3.3.3.3.3.3.3.3.3.3.3.3.3.3.3.3.3.3.3.3.;.T 0 > $ 2 e.",
"| 2 # & 4 P @.3.3.3.3.3.3.3.3.3.3.3.3.3.3.3.3.3.3.3.3.3.3.3.3.3.3.3.3.3.3.3.3.3.3.3.3.3.3.3.3.3.3.3.3.3.3.3.3.3.3.;.b 4 $ # , e.",
"| , + & 4 v @.3.3.3.3.3.3.3.3.3.3.3.3.3.3.3.3.3.3.3.3.3.3.3.3.3.3.3.3.3.3.3.3.3.3.3.3.3.3.3.3.3.3.3.3.3.3.3.3.3.3.@.b 2 $ + , e.",
"=.2 + % 2 v @.2.3.3.3.3.3.3.3.3.3.3.3.3.3.3.3.3.3.3.3.3.3.3.3.3.3.3.3.3.3.3.3.3.3.3.3.3.3.3.3.3.3.3.3.3.3.3.3.3.3.@.v 2 # + , 0.",
"%.2 + % 2 c X.1.2.3.3.3.3.3.3.3.3.3.3.3.3.3.3.3.3.3.3.3.3.3.3.3.3.3.3.3.3.3.3.3.3.3.3.3.3.3.3.3.3.3.3.3.3.3.3.2.1.X.p 2 # + , 0.",
"%.2 + # > e L X.1.3.3.3.3.3.3.3.3.3.3.3.3.3.3.3.3.3.3.3.3.3.3.3.3.3.3.3.3.3.3.3.3.3.3.3.3.3.3.3.3.3.3.3.3.3.3.;.{ L e > # + , 0.",
" .2 + # > 3 e I ;.3.3.3.3.3.3.3.3.3.3.3.3.3.3.3.3.3.3.3.3.3.3.3.3.3.3.3.3.3.3.3.3.3.3.3.3.3.3.3.3.3.3.3.3.3.3.@.L e 3 = # + , 0.",
"=.2 + # = 1 0 S $.3.3.3.3.3.3.3.3.3.3.3.3.3.3.3.3.3.3.3.3.3.3.3.3.3.3.3.3.3.3.3.3.3.3.3.3.3.3.3.3.3.3.3.3.3.3.$.S 0 < = # + , 8.",
"=.2 + # = 1 0 S $.3.3.3.3.3.3.3.3.3.3.3.3.3.3.3.3.3.3.3.3.3.3.3.3.3.3.3.3.3.3.3.3.3.3.3.3.3.3.3.3.3.3.3.3.3.3.$.S 0 < = # + , 8.",
"%.2 + + $ > 4 p $.3.3.3.3.3.3.3.3.3.3.3.3.3.3.3.3.3.3.3.3.3.3.3.3.3.3.3.3.3.3.3.3.3.3.3.3.3.3.3.3.3.3.3.3.3.3.$.p 4 > $ + + , 8.",
"| 2 o o + $ 1 p X.2.3.3.3.3.3.3.3.3.3.3.3.3.3.3.3.3.3.3.3.3.3.3.3.3.3.3.3.3.3.3.3.3.3.3.3.3.3.3.3.3.3.3.3.3.3.X.p 1 $ + o + , 6.",
"6.y = + X # - u X.2.3.3.3.3.3.3.3.3.3.3.3.3.3.3.3.3.3.3.3.3.3.3.3.3.3.3.3.3.3.3.3.3.3.3.3.3.3.3.3.3.3.3.3.3.3.{ u - + X + = 9 e.",
"  t._ , X X & 9 { 2.3.3.3.3.3.3.3.3.3.3.3.3.3.3.3.3.3.3.3.3.3.3.3.3.3.3.3.3.3.3.3.3.3.3.3.3.3.3.3.3.3.3.3.3.3.{ 8 $ X X , _ e.  ",
"    a.y + o * e { 2.3.3.3.3.3.3.3.3.3.3.3.3.3.3.3.3.3.3.3.3.3.3.3.3.3.3.3.3.3.3.3.3.3.3.3.3.3.3.3.3.3.3.3.3.3.{ 8 # X X y i.    ",
"    g.i # * 4 c $.3.3.3.3.3.3.3.3.3.3.3.3.3.3.3.3.3.3.3.3.3.3.3.3.3.3.3.3.3.3.3.3.3.3.3.3.3.3.3.3.3.3.3.3.3.3.{ 8 + . X i f.    ",
"    g.i = 8 L X.1.3.3.3.3.3.3.3.3.3.3.3.3.3.3.3.3.3.3.3.3.3.3.3.3.3.3.3.3.3.3.3.3.3.3.3.3.3.3.3.3.3.3.3.3.3.3.{ 8 # . X i d.    ",
"    u.y > p @.2.3.3.3.3.3.3.3.3.3.3.3.3.3.3.3.3.3.3.3.3.3.3.3.3.3.3.3.3.3.3.3.3.3.3.3.3.3.3.3.3.3.3.3.3.3.3.3.{ e $ O # y 0.    ",
"  [ i 2 2 b @.2.3.3.3.3.3.3.3.3.3.3.3.3.3.3.3.3.3.3.3.3.3.3.3.3.3.3.3.3.3.3.3.3.3.3.3.3.3.3.3.3.3.3.3.3.3.3.3.X.p < ; ; 4 j [   ",
"| 5 & & 2 p { <.2.3.3.3.3.3.3.3.3.3.3.3.3.3.3.3.3.3.3.3.3.3.3.3.3.3.3.3.3.3.3.3.3.3.3.3.3.3.3.3.3.3.3.3.3.3.3.$.z 0 3 3 < > 5 0.",
"} 2 # # > e F { ,.3.3.3.3.3.3.3.3.3.3.3.3.3.3.3.3.3.3.3.3.3.3.3.3.3.3.3.3.3.3.3.3.3.3.3.3.3.3.3.3.3.3.3.3.3.3.$.S 0 6 6 ; $ 2 8.",
"| , + # = 3 e L @.3.3.3.3.3.3.3.3.3.3.3.3.3.3.3.3.3.3.3.3.3.3.3.3.3.3.3.3.3.3.3.3.3.3.3.3.3.3.3.3.3.3.3.3.3.3.$.S 0 6 3 ; $ , 8.",
"| , + # = 1 0 S $.3.3.3.3.3.3.3.3.3.3.3.3.3.3.3.3.3.3.3.3.3.3.3.3.3.3.3.3.3.3.3.3.3.3.3.3.3.3.3.3.3.3.3.3.3.3.$.S 0 3 < ; @ , 8.",
"| , + # = 1 0 S $.3.3.3.3.3.3.3.3.3.3.3.3.3.3.3.3.3.3.3.3.3.3.3.3.3.3.3.3.3.3.3.3.3.3.3.3.3.3.3.3.3.3.3.3.3.3.$.S 0 < > $ # , 6.",
"| , + # = 1 0 S $.3.3.3.3.3.3.3.3.3.3.3.3.3.3.3.3.3.3.3.3.3.3.3.3.3.3.3.3.3.3.3.3.3.3.3.3.3.3.3.3.3.3.3.3.3.3.$.S 0 < = # + , 6.",
"| 2 + # = 1 0 S $.2.2.3.3.3.3.3.3.3.3.2.2.2.2.3.3.3.3.3.3.3.3.3.3.3.2.2.2.2.2.3.3.3.3.3.2.2.1.1.2.3.3.3.3.3.2.$.S 0 < = # + - 6.",
"| 2 + # = 1 0 p Q ;.1.3.3.3.3.3.3.3.3.1.@.@.1.3.3.3.3.3.3.3.3.3.3.2.<.@.$.@.;.1.3.3.3.1.@.$.X.X.$.1.3.3.3.1.;.Q p 0 < & # + - *.",
"| 2 + # = < 6 w l T @.1.3.3.3.3.3.3.1.{ b b { 1.3.3.3.3.3.3.3.3.2.<.] j p z I X.1.3.2.@.P u t e p X.1.3.1.@.T p w 6 ; # O o - %.",
"| 2 + # & < 3 6 0 p Q ;.;.;.;.;.;.;.$.b 8 8 v $.1.2.2.3.2.1.1.;.;.X.p 4 3 4 r L @.;.;.{ u , = $ 1 b @.;.@.T r 0 6 3 ; @ + & 5 6.",
" ., + + # = < < 6 w p I T T T T T T L e > - 8 b { <.2.3.1.$.Q T T S e 1 > ; < e K T I p 4 = + O * e L T I p 3 ; ; ; $ + - i |   ",
"=., X X + # = < 3 6 0 w w w w w w w 0 < @ # = 4 j X.1.1.@.T p w w w 6 < ; $ $ < 0 w w 0 1 & + X # < 0 w w 3 $ @ $ $ # + 9 8.    ",
" ., X X + + # $ ; ; < 3 4 6 6 6 6 4 < $ O X # - 8 L Q { T p 0 6 3 < < < $ @ O $ < 3 4 < > & + X O $ ; ; ; ; @ # # # + X 5 *.    ",
"=.2 + + # + + O @ @ $ > < 3 6 6 3 < > # O X + & 1 e r r r w 6 < < > > = # O X # = < 3 < > & + X X O @ @ @ $ ; ; @ + X X & 9 m   ",
"| , + # # + X X X O # $ ; < < < < > = # o X + # > 4 0 0 6 4 3 < = & & # + X X + & > < < = & + X X O @ @ @ $ ; : $ # O X o # 2 *.",
"| 2 # # % # + o X X o + # $ $ $ $ ; > $ O X X + * < 6 6 3 < < > & % # + X X X + & = > > & % + X O @ $ * ; ; 3 3 ; ; $ # + + - %.",
"8.y - & % % # + X . X X O O O O # * ; $ O X X X $ ; 3 3 3 < = & # # + X X . X + # & & & & # + o @ ; < < 3 3 3 3 < < > & # + - %.",
"  e.M 2 # # # + X X X + # @ $ $ $ $ $ @ O X . X # ; < 3 3 ; # + + + X X . . X X + + + + + + + + # * < 3 3 3 < < < < > & # # - %.",
"    a.y # # # + X X + # * ; : ; ; $ @ X X . . X + $ ; < < * + X X X X X . . . X X X X X X X + # # & = < 3 < > = = = & & # + - %.",
"    g.i + # # + X X # & > < < < ; $ + X X X X X + # $ $ ; $ + + + # + O X X X O # + + X X X o + # % & > < < = & & & % # + + - *.",
"    g.k # # # + X X # & & = > = = $ # + X X + + + + O @ # # # $ $ ; $ # o X O @ * $ # + X X X X + # & & = & & & & % # + o + , 6.",
"      =.9 , % + X X + # & & & % # # # + X X + # + o X X + # # = < < > & + X O $ < > & # + X X X X + # % & & & & & % # X # 2 i   ",
"        e.s & X X X X + # % # + + + + X X X X + + + + + # # & & > > = & + X O # = = & % # + o X X X + # % & & & & % # + 2 ' p.  ",
"           .5 # X . . X + # & - - - - - - & # o o # # # # # % & & & & % & = - = & & & % % # & = - - - = & % % % % & & - k       "
};
