/* XPM */
static char *_56d88bf789c4c0beb2a6acab557ff3dozz1Tgx909mZbl4J[] = {
/* columns rows colors chars-per-pixel */
"64 64 248 2 ",
"   c #030202",
".  c #0C0C0C",
"X  c #0B0706",
"o  c #140D0D",
"O  c #140B07",
"+  c #1D140A",
"@  c #1C180A",
"#  c #180F10",
"$  c #131212",
"%  c #1B1B1C",
"&  c #191617",
"*  c #231A1F",
"=  c #281915",
"-  c #351E17",
";  c #2E130B",
":  c #3B250C",
">  c #36290A",
",  c #29261B",
"<  c #36261A",
"1  c #342C0E",
"2  c #1D1E23",
"3  c #171629",
"4  c #1C1B30",
"5  c #251D22",
"6  c #281F24",
"7  c #3B1F24",
"8  c #1C2528",
"9  c #1C2125",
"0  c #252225",
"q  c #2A2226",
"w  c #2D252A",
"e  c #2C2B2D",
"r  c #282828",
"t  c #30272C",
"y  c #31292E",
"u  c #3A2626",
"i  c #2D2E30",
"p  c #262E33",
"a  c #322E31",
"s  c #382F34",
"d  c #2E3334",
"f  c #2F3837",
"g  c #333334",
"h  c #393236",
"j  c #323937",
"k  c #343738",
"l  c #3A353A",
"z  c #333B3B",
"x  c #3C3B3D",
"c  c #393B35",
"v  c #303227",
"b  c #1E201C",
"n  c #470B09",
"m  c #491A0C",
"M  c #7F1D18",
"N  c #6C1914",
"B  c #55340E",
"V  c #563511",
"C  c #4A3012",
"Z  c #6B2D1C",
"A  c #442425",
"S  c #4C2A24",
"D  c #48292A",
"F  c #582C2A",
"G  c #583324",
"H  c #413B3F",
"J  c #413A37",
"K  c #5E3632",
"L  c #5A2930",
"P  c #66282A",
"I  c #67282A",
"U  c #742421",
"Y  c #7D2929",
"T  c #643B32",
"R  c #663932",
"E  c #722A31",
"W  c #34413D",
"Q  c #045333",
"!  c #53430E",
"~  c #504511",
"^  c #684514",
"/  c #724D16",
"(  c #796316",
")  c #534635",
"_  c #694725",
"`  c #79482B",
"'  c #775527",
"]  c #6C4431",
"[  c #744832",
"{  c #6C5B35",
"}  c #7A6F3D",
"|  c #507D3F",
" . c #3C3D42",
".. c #373E44",
"X. c #2E255F",
"o. c #342E69",
"O. c #433E42",
"+. c #374341",
"@. c #3B4444",
"#. c #3E4949",
"$. c #3C4748",
"%. c #277843",
"&. c #454144",
"*. c #484446",
"=. c #434549",
"-. c #4B4649",
";. c #404C4C",
":. c #434B4D",
">. c #4D494C",
",. c #514C4C",
"<. c #4A4C52",
"1. c #454E51",
"2. c #534E51",
"3. c #465153",
"4. c #4A5456",
"5. c #4C5659",
"6. c #4F5A5D",
"7. c #50565D",
"8. c #51595F",
"9. c #5A5558",
"0. c #56534C",
"q. c #7A5E4D",
"w. c #766951",
"e. c #545D63",
"r. c #575F67",
"t. c #464776",
"y. c #566167",
"u. c #5A6265",
"i. c #566268",
"p. c #5B666C",
"a. c #5D686D",
"s. c #5B6570",
"d. c #626A6A",
"f. c #626866",
"g. c #767862",
"h. c #614061",
"j. c #9E1E0A",
"k. c #9F1807",
"l. c #831D17",
"z. c #871807",
"x. c #A31D07",
"c. c #A21E08",
"v. c #A31705",
"b. c #853014",
"n. c #A82B0B",
"m. c #942C2B",
"M. c #8D2E2D",
"N. c #AE2F2A",
"B. c #D82B23",
"V. c #DB3124",
"C. c #D73225",
"Z. c #88571B",
"A. c #935A1E",
"S. c #B54F13",
"D. c #94671C",
"F. c #8D6C1C",
"G. c #B36D19",
"H. c #834D27",
"J. c #895629",
"K. c #955B23",
"L. c #855933",
"P. c #9E4D2B",
"I. c #AD532E",
"U. c #8B622D",
"Y. c #966E2E",
"T. c #9A6627",
"R. c #9B772D",
"E. c #8C6532",
"W. c #946D34",
"Q. c #9A7735",
"!. c #867632",
"~. c #A56723",
"^. c #A97725",
"/. c #B47923",
"(. c #A37F32",
"). c #C67319",
"_. c #D4572B",
"`. c #E25226",
"'. c #CE7531",
"]. c #E27C25",
"[. c #D42F57",
"{. c #836A44",
"}. c #907B6C",
"|. c #BE5342",
" X c #D75C5D",
".X c #A71552",
"XX c #2D9D67",
"oX c #6A9B5A",
"OX c #2BD174",
"+X c #BA881E",
"@X c #A8871D",
"#X c #978D33",
"$X c #A98528",
"%X c #B78925",
"&X c #BD9329",
"*X c #A48232",
"=X c #AB963D",
"-X c #B7A432",
";X c #C79928",
":X c #C39C35",
">X c #C18C27",
",X c #C9A326",
"<X c #CAA52A",
"1X c #DAAD24",
"2X c #D1A528",
"3X c #D4A927",
"4X c #DEB425",
"5X c #D9B02B",
"6X c #CBA737",
"7X c #D1B236",
"8X c #E2BA28",
"9X c #D2A21E",
"0X c #E8C835",
"qX c #EDD33C",
"wX c #E7D03B",
"eX c #F3D63A",
"rX c #E7C22C",
"tX c #918C55",
"yX c #AB8D43",
"uX c #A2A262",
"iX c #D5884B",
"pX c #D2B649",
"aX c #E0A669",
"sX c #DAC54D",
"dX c #EBD547",
"fX c #F4DC47",
"gX c #E6D04A",
"hX c #F8E54B",
"jX c #F8EA53",
"kX c #FCF155",
"lX c #FBF258",
"zX c #D0C36C",
"xX c #EED57A",
"cX c #6362A2",
"vX c #E26385",
"bX c #7E8387",
"nX c #5889D0",
"mX c #7DABE2",
"MX c #B4B1B1",
"NX c #968887",
"BX c #87E9A9",
"VX c #9D97D0",
"CX c #D3D1D0",
"ZX c #EAE8E7",
"AX c #F9F8F6",
"SX c #F3F0EB",
"DX c #E8DEC5",
"FX c #8EE2F2",
/* pixels */
"    $ e &.=.k i e e i k &.&.&.x e e e e e e e e e e e w q q w h h a h t w q q q w w e e e e e d @.&.h k k e e e i k =.&.e $     ",
"  $ a &.x x z z z z z z x x l a a g z z z z z z z z j g t e t a h a a t t e e e t a k z z z z z x x h z z z z z z z x x &.g $   ",
"$ g >.O.y k z @.#.#.@.z d e e a k ..#.;.;.;.;.;.;.;.$.z g g g e w w e a g g g g g z $.;.;.;.;.#.+.a e d z @.#.#.$.z d e O.,.l % ",
"g *.O.h a k +.#.4.4.#.+.z z k z +.:.5.6.6.6.6.8.6.5.3.$.z z z k y e g z z z z z z #.4.6.6.6.6.5.:.l a k z #.4.4.;.W k e h *.>.&.",
"&.x t t a k +.3.8.e.3.#.$.$.$.$.;.5.r.i.i.i.i.i.i.i.8.3.#.$.@.x h g z +.$.$.$.$.#.3.e.i.i.i.i.y.7.=.x ..$.3.e.8.1.+.k a t t H 9.",
"*.h q w a k +.3.e.y.6.5.4.4.4.4.5.e.i.p.p.p.p.p.p.p.y.6.5.4.3.:.+.z #.3.4.4.4.4.5.8.i.p.p.p.p.i.e.5.<.<.4.6.y.e.3.+.k a w q h 9.",
">.h q w a k +.3.e.p.i.y.y.y.y.y.y.i.p.p.p.p.p.p.p.p.p.i.y.y.e.5.:.$.3.e.y.y.y.y.y.i.p.p.p.p.p.p.i.r.r.r.y.i.p.e.3.+.k a w q h 9.",
">.h q w a k +.3.e.p.p.p.p.p.p.p.p.p.p.p.p.p.p.p.p.p.p.p.p.p.p.e.4.3.6.y.p.p.p.p.p.p.p.p.p.p.p.p.p.p.p.p.p.p.p.e.3.+.k a t w h 9.",
">.h q w a k +.3.e.p.p.p.p.p.p.p.p.p.p.p.p.p.p.p.p.p.p.p.p.p.p.i.r.e.y.p.p.p.p.p.p.p.p.p.p.p.p.p.p.p.p.p.p.p.p.e.3.+.k a w q h 2.",
"-.h q w e g x 1.e.p.p.p.p.p.p.p.p.p.p.p.p.p.p.p.p.p.p.p.p.p.p.p.p.p.p.p.p.p.p.p.p.p.p.p.p.p.p.p.p.p.p.p.p.p.p.e.:.z g e w q h 2.",
"&.h 6 6 w e k :.e.p.p.p.p.p.p.p.p.p.p.p.p.p.p.p.p.p.p.p.p.p.p.p.p.p.p.p.p.p.p.p.p.p.p.p.p.p.p.p.p.p.p.p.p.p.p.e.:.k e w 6 6 h >.",
"x x t q q w h =.e.p.p.p.p.p.p.p.p.p.p.p.p.p.p.p.p.p.p.p.p.p.p.p.p.p.p.p.p.p.p.p.p.p.p.p.p.p.p.p.p.p.p.p.p.p.p.e.=.a w 6 q t x H ",
"r O.&.a 5 q a &.8.p.p.p.p.p.p.p.p.p.p.p.p.p.p.p.p.p.p.p.p.p.p.p.p.p.p.p.p.p.p.p.p.p.p.p.p.p.p.p.p.p.p.p.p.p.p.8.O.t 6 5 s *.O.r ",
". e ,.H 5 5 e  .8.p.d.tXp.p.p.p.p.p.p.p.p.p.p.i.i.p.p.p.p.p.i.i.i.i.p.p.i.i.p.p.p.p.p.p.p.p.p.p.p.p.p.p.p.p.p.7. .w 5 5 O.2.e X ",
". e >.H 0 0 i @.6.d.zX-X4 t.s.p.p.i.:.=.$...z p 8 8 8 8 8 8 2 9 9 2 8 8 8 8 8 8 8 8 8 8 8 9 ..p.p.p.p.p.p.p.p.8.@.e 0 5 H 2.g $ ",
"r x O.a 0 e z :.e.p.tX=X3 o.7.p.i.k 1 - ; n n C > ; n n n m ~ ! ! ~ m n n n ; > C n n ; ; > r i.p.p.p.p.p.p.p.e.:.k r 0 a &.O.g ",
"x l e q e k $.3.r.p.p.g.e.* D =.i.v $XL.N.V.B.].*XM.V.C.B._.dX5X5XdX_.B.C.V.M.R.].B.V.N.L.$Xv i.a.p.p.p.p.p.p.r.3.$.k r q e x >.",
"&.h q e k @.3.6.y.p.p.p.p.=.D g i.v @XL.N.V.B.].*XM.V.V.B.`.,X1 1 ;X`.B.V.V.M.' _.V.V.N.` Z., i.p.p.p.p.p.p.p.i.6.3.@.k r 0 h 9.",
"*.h e d +.3.e.y.p.p.p.p.p.p.h J 5.% @XL.Y m.m.~.U.E m.m.m.I.%XX X %XI.m.m.m.E J.~.m.m.Y ` D., i.a.p.p.p.p.p.p.p.y.e.3.+.d r h 9.",
"-.l e z $.5.y.p.p.p.p.p.p.i.q D & O $XY.T T T H.J.T T T T L.&X> > &XL.T [ [ ] $X$X] [ ] Y.+X, i.a.p.p.p.p.p.p.p.p.y.5.$.z e l 9.",
"-.l e z #.5.y.p.p.p.p.p.p.i.5 G ` 1 $X5X^.K.K.T.K.K.K.K.K.^.3X,X,X3X^.&X3X2X2X1X1X2X2X2X5X+X, i.a.p.p.p.p.p.p.p.p.i.5.$.j e l 9.",
"-.h e k $.5.y.p.p.p.p.p.p.e.= _ C }.{ ! C : : : : : : : > B /.%X+X/.V B ! ! ! ! ! V / D.! > b i.p.p.p.p.p.p.p.p.p.i.5.$.k e l 9.",
"-.h w a  .4.y.p.p.p.p.p.i.% : ^ 0.CXc                 . X = H.J.J.H.+             X V Z.+   % p.p.p.p.p.p.p.p.p.p.i.4...i w l 9.",
"-.h q t x <.r.p.p.p.p.p.y.< ^ < CXZXx             X = K T K T T T K + X X         : /.;X/   % p.p.p.p.p.p.p.p.p.p.y.<.l t q h 9.",
"-.h q t x <.r.p.p.p.p.p.i.r + q CXAXMXe     = D A _ -XsXpXJ.H.K.%X%XZ./ G D =     X V D.;   & i.p.p.p.p.p.p.p.p.p.y.<.l e q h 9.",
">.h q t x <.r.p.p.p.p.p.p.i.i.i.NXSXSXx   + G H.` T.5XhXhX6X:X6XwXeX7X>X^.[ 7 - C - - :     & i.p.p.p.p.p.p.p.p.p.r.<.l t q h 9.",
">.h q w l :.8.y.p.p.p.p.p.p.a.y.g CXSX>.  u L.T.~.~.%XrXjXlXkXkXkXkXkX0X8XU.K H.~.J.A X     & i.p.p.p.p.p.p.p.p.y.8.:.l t q h 2.",
">.h q w h @.3.6.i.p.p.p.p.p.p.f.yXDXAXCX .X.cXh.*XhXdX4X0XkXkXkXjX0XhXjX0X/.K.` ` ~.H.- # - % y.p.p.p.p.p.p.p.y.6.1.@.h w q h 2.",
">.h q w a z $.4.r.p.p.p.p.p.p.g.gXxXSXSXcXcXmXcXtXeXqXqXqXwXqXkXkXfXqXqX;X~.~.~.T.K.[ A + A 2 y.p.p.p.p.p.p.p.r.3.$.z a w q h 2.",
">.h q w a k +.3.e.p.p.p.p.p.p.tXgX<XDXSXVXVXFXnX}.8XqXlXfX8XrXhXhXhX0X8X%XP.P.;X2XJ.R S + A 2 y.p.p.p.p.p.p.p.e.3.+.k a w q h 2.",
">.h q w a k +.3.e.p.p.p.p.p.p.d.=XC MXAXZXVXnXbX+XwXlXfX0XjXhX8X8X8XhXkX0XI..XiXeX%XT.^ + A 0 y.p.p.p.p.p.p.p.e.3.+.k a w q h 2.",
">.h q w e g z :.e.p.p.p.p.p.p.p.u.%  .CXAXNXq.yX3X8XeX6X| oXrX%X/.3X0X0X'.vX X[.:X;XK.S + A 0 y.p.p.p.p.p.p.p.e.:.z g e q q h 2.",
"-.h 6 6 w e k :.e.p.p.p.p.p.p.p.i.2 . MXAXaXG.9X8X4X2XtXXXXX#X~./.3X4X1X'.vXvX[.'.+XJ.A & A 0 y.p.p.p.p.p.p.p.e.:.k e q 6 6 s -.",
"&.H t 6 5 w s =.e.p.p.p.p.p.p.p.i.9 . MXZXzX1X1X5X8X#XoXBXOX%.T.2X1X4X4X4X|.[.aX6XA.J.u & A 0 y.p.p.p.p.p.p.p.8.=.a q 5 q t x x ",
"e *.>.s 5 6 t @.8.p.p.p.p.p.p.p.i.0 < h g U././././.^.} OXOX!.~././.1XrX8X'.I./.T.R F X # A 0 y.p.p.p.p.p.p.p.7.O.t 5 5 h -.H 0 ",
". g 2.O.6 5 e  .7.p.p.p.p.p.p.p.y.0 A o   ; V B B B B 1 Q %.V B V V / ( ( ^ B Z G * #   # A 2 y.p.p.p.p.p.p.p.7. .w 5 5 O.>.r X ",
"  % >.*.w w k :.e.p.p.p.p.p.p.p.i.0 G < @ @ + + @ + @ + @ @ + + @ @ + + + + + S A O O O - G % y.p.p.p.p.p.p.p.7. .w * 6 &.O.$   ",
"  % -.*.a x 1.7.i.p.p.p.p.p.p.a.i., @XgXgX7X,X,X,X,X,X,X,X,X,X,X,X,X,X,X,X,X,X$XA.A.A.Z.^.@X, i.a.p.p.p.p.p.p.7. .w * 6 &.x .   ",
"  r 2.*.h :.e.p.p.p.p.p.p.p.p.p.i.0 ' :X=XQ.Y.^.^.Y.Y.Y.Y.Y.Y.Y.Y.Y.Y.Y.Y.Y.Y.T.J.` ` H.~.' % i.p.p.p.p.p.p.p.6. .w 5 q &.&.%   ",
"5 O.2.x h <.r.p.p.p.p.p.p.p.p.p.i.2 A T.` L I J.J.L P P P P P P P P P P P I L J.K.I L [ T.A % y.p.p.p.p.p.p.p.8.#.k e i  .-.h $ ",
"h x h a l <.e.p.p.p.p.p.p.p.p.p.i.& S &XU.M k.).(.U j.j.j.j.j.j.j.j.j.j.j.c.U R.).k.l.L.&XS % y.p.p.p.p.p.p.p.e.;.z z z z x x h ",
"O.h w t l =.5.e.i.p.p.p.p.p.p.p.y.% S ;XU.l.v.).*XU x.x.x.x.x.x.x.x.x.x.x.x.U (.).v.l.L.&XS % y.p.p.p.p.p.p.p.e.3.+.W W f e h >.",
"*.h q w h x :.5.y.p.p.p.p.p.p.p.y.& S 6XE.M v.).(.U x.c.c.c.c.c.c.c.c.c.c.x.U R.).v.l.E.6XS % i.p.p.p.p.p.p.p.e.3.+.W W d e h 2.",
"-.h q w a k @.3.e.p.p.p.p.p.p.p.y.& S pXQ.M v.).*XU x.c.c.c.c.c.c.c.c.c.c.c.U R.).v.l.W.pXS % y.p.p.p.p.p.p.p.e.3.+.W z k e h 2.",
"-.h q w a k +.3.e.p.p.p.p.p.p.p.y.% S :XE.M v.).*XU x.c.c.c.c.c.c.c.c.k.v.v.U (.).v.l.L.:XS + q.p.p.p.p.p.p.p.e.3.+.z k i w h ,.",
"-.h q w a k +.3.e.p.p.p.p.p.p.p.i.2 S ;XE.l.v.G.Y.Y c.c.c.c.c.c.c.v.k.S.G.n.U Y.G.v.l.L.&XF V (.f.p.p.p.p.p.p.e.3.+.z g e w h >.",
"-.h q w a k +.3.e.p.p.p.p.f.f.p.y.u G $X' N z.b._ N z.z.z.z.z.z.z.n.S.2X8X).U _ b.z.N ' &XL.%X2XQ.p.p.p.p.p.p.e.3.+.k a w q a -.",
">.h q w a k +.3.e.p.p.p.d.uXtXf.{.K.A.: $ o o # $ $ # o o o o O + %XfXjX0X1X^ O O o O : %XjXfX8X2Xw.p.p.p.p.p.e.3.+.k a w q a *.",
"-.h q w a k +.;.6.r.i.p.f.tXf.w.&X7XpX' 7.e.e.y.i.i.i.i.y.y.y.) F.wXeXwXdXfX-X/ ,.i.e.' 2XeXqXhXdX{.i.p.p.i.y.5.;.+.k e w q a &.",
"-.h q w a k W $.;.5.e.p.p.g.f.Q.rXkXjX*X<.<.8.i.p.p.p.p.p.p.p.f.:XsX<X1XqXhX0X(.u.a.p.u.=X;X,XgXsXw.i.p.p.e.4.;.$.z d w 6 5 a x ",
">.h q w a k z W @.;.5.r.y.y.w.6XhXjXrX<X)  .<.e.i.p.p.p.p.i.y.y.u.9.{ &X8X8XR.4.e.y.r.5.*._ _ _ ) <.r.y.e.5.#.W z z d 0 q t l g ",
">.h 6 q w i k z z $.;.4.5.5.5.} $X$X^.' h a  .<.7.r.p.p.p.e.5.5.5.1.@.J D.F.c $.3.4.4.:.x t q 0 e @.3.5.4.#.z d d g e 0 h &.l % ",
">.h 5 5 q w a k z W @.$.$.$.$.$.$.@.@.k e w a x >.e.i.i.y.5.;.#.$.$.W z g e r z $.$.$.+.h t q 6 w z $.$.@.z e r e e w q O.*.0 X ",
">.h 5 5 q q w e d k z z z W W W W z z i 0 6 w a  .4.6.8.5.1.@.W z z z j i r 0 e z z z z g t q 5 0 e d d d d r w w w 6 6 H &.0 X ",
">.h q q q q q q w e i g z z W W z z g e 6 5 w t l $.;.;.;.$.+.z k g g a e 0 5 w g k z z g t q 5 5 r w r r e d i r 0 5 5 t x h % ",
">.h q w w q 5 5 5 0 w e g j j z z g a w 6 5 q t g z +.+.+.W z k g t t t q 5 5 w t g z j g t q 5 5 0 0 0 r e d d e r 5 5 q w h g ",
"-.h q w t w q 5 5 5 q q r e e e i d g e 0 5 6 w i z W W z z k g y t w q 6 5 5 q t a g g a t q 5 5 r e e e d z z d e r w q q a x ",
"&.x t t t t w q 5 * 5 5 0 0 r r r d d e 0 5 5 0 e j z W z k a t t w q 5 5 5 5 q w t t t t w q 6 r d d z z z z z j f g e w q a H ",
"x ,.-.h w t t q 5 5 5 0 q w r r r e d e 0 5 5 5 w d z z z g e w w q 5 5 * * 5 q w w w w w w q q w d j z W W z z z j g a w q a x ",
"% &.9.O.w w w q 5 5 q w e d d d d e w 0 5 * * 5 q e k z z d w 6 6 5 5 * * * * 5 6 6 6 6 5 6 q w w y g j z z k g g a a t w q a x ",
"  r 2.-.q w w q 5 5 w t g k z z k e 0 5 5 * 5 5 q w e g d e 0 0 0 0 0 5 5 5 5 5 0 0 5 5 5 5 6 w w t a g z k a t t t t t w q a O.",
"  % >.-.w w w q 5 5 w t a g g g g e q 6 5 5 5 q q q w r e r w w e e r q 6 5 5 w e r w q 5 5 5 q w t t a g g t t t t w w 6 6 a O.",
"  $ x >.h t w q 5 5 w t t a a t t t w q 5 5 q w q 6 5 0 0 w w a g k a t q 5 0 e d d t w 6 5 5 5 6 w t t t t t t t t w 6 q t l x ",
"  X r >.2.O.t 6 5 5 6 w w t t w w w q q 5 5 6 q q q 6 6 q w t a g k a t w 5 0 e k g t t w 6 5 5 5 q w w t t t t t t w 6 a &.O.r "
};
