/* XPM */
static char *a819c26ebd424e79ce0e6238b2327719nXVvI2FYeGIs9xym[] = {
/* columns rows colors chars-per-pixel */
"64 64 89 1 ",
"  c #EB2531",
". c #EB2A32",
"X c #EC3335",
"o c #ED3A33",
"O c #E0323D",
"+ c #E13B3F",
"@ c #ED3D39",
"# c #ED4132",
"$ c #EE423B",
"% c #EF4C3E",
"& c #EF513F",
"* c #E33E41",
"= c #E34242",
"- c #E54944",
"; c #EF5340",
": c #E75448",
"> c #F05641",
", c #F05B43",
"< c #E7664E",
"1 c #E9604C",
"2 c #EB684E",
"3 c #F16446",
"4 c #F16947",
"5 c #F26E49",
"6 c #F2734B",
"7 c #F37D4E",
"8 c #EF6F5A",
"9 c #ED7452",
"0 c #EE7A55",
"q c #E96D75",
"w c #EC7F75",
"e c #F3804F",
"r c #EC8A5A",
"t c #F28353",
"y c #F48C53",
"u c #F28E5B",
"i c #F59356",
"p c #F3965E",
"a c #F69D59",
"s c #F7A45C",
"d c #F7AB5E",
"f c #F8AF5F",
"g c #F59E60",
"h c #EB847D",
"j c #EBA362",
"k c #F6A362",
"l c #F6A864",
"z c #F7B467",
"x c #F8B361",
"c c #F9BC64",
"v c #F7B969",
"b c #FAC366",
"n c #FAC867",
"m c #F9C46C",
"M c #FBCD69",
"N c #FBD56C",
"B c #FCDB6E",
"V c #F5D774",
"C c #FAD070",
"Z c #FBDF76",
"A c #FCE171",
"S c #FDEC74",
"D c #FEEF75",
"F c #FCE678",
"G c #F6EB7A",
"H c #FEF075",
"J c #FEF577",
"K c #F2F07C",
"L c #F2F67E",
"P c #F5F57E",
"I c #FBF27C",
"U c #F8F57D",
"Y c #FDF47D",
"T c #ED9382",
"R c #ED9583",
"E c #EEA688",
"W c #EFB18C",
"Q c #F5CA84",
"! c #F1C191",
"~ c #F4DC94",
"^ c #F3D798",
"/ c #F3D999",
"( c #F3DC9B",
") c #FAF187",
"_ c #F4E19C",
"` c #F5EB9F",
"' c #F8F091",
"] c #F5EEA0",
"[ c #F5F1A1",
/* pixels */
"YF0OO0mAj<pVIPLLPZkg2-pt*tgzGKKLLLUYm0O:u=*uggu=OO0009O1mlr+=vY]",
"Sy.   $3X .,aNNNN7..  .. ..@567bNNNN6   .  ....   .... .%X.  6B`",
"7X          X$$$$.             @$$$$X                        .3(",
"                                                              ,(",
";.                                                           %c]",
"M;                                                           7H]",
"H6                                            o.             eH]",
"S5                                            o.             6S[",
"S5                                                           Xy!",
"S5    ..             ..                                        q",
"S5    oo             Xo                                       XT",
"c$                                                            %^",
"a.                              o.                           .6_",
"a.                              o.                           3B]",
"a.                                                          XsJ]",
"a.                                                          %AJ]",
"a.                                               XX         @cJ'",
";                                           .#   XX          6BH",
"                                             .               X>c",
"                                                               6",
"                                                               6",
"                                                              .t",
";.                                                            %N",
"M;       .#                    .                              %C",
"Hi.      ..                   .#.                             .w",
"Hi.                                                           @W",
"S5                                                            %/",
"S5                                                            %~",
"S5                                                            @z",
"S5                                                        #. X$t",
"S6                                          .o            .  6NA",
"HxX            ..                           .o              @cJJ",
"JN$            Xo                                           6SJ)",
"JN$                           ..                           .sHH]",
"HxX                           oX                            ,AJ]",
"S6                                                          XsH]",
"S5     o.                                                    7H]",
"c$     o.                                                    %n_",
"a.                                                           .iT",
"a.                                                           .&h",
"a.                                                            $Q",
"y.                                           .                Xa",
"3.                                          .#                 8",
"M;                                                             q",
"Hi.                                                            q",
"JSe                    ..                                      q",
"HJs.                   Xo                                     XR",
"HJs.                                                          %/",
"HJs.                                                          %/",
"JN3                                                    oo     %/",
"N3                                                     ..     %^",
"a.     #.                             #.                      $E",
"c$     .                              ..                    X5c(",
"HfX                                                         %BJ]",
"JA3                                                         %AJ]",
"HJs.                                                        %AJ]",
"HJs.                                                        %BJ]",
"HAi                                                         XsH]",
"HtX                                                          7H]",
"A3                                                           6S]",
"dX                        %64X                               ob[",
"NiX  .@@      X$$$X    .$iMHSc5.                   .@        .x[",
"JA3..$bn73X ..6NNNs6% %yNSJHHJN%  ..;64X.  ....  $5ab7$.%X   %M[",
"HJNaadSJHAs,iabJJJHHy@cHJJHHHHSx, 4sMHN5yoXyaayo6cSHJScsns% @xH)"
};
