/* XPM */
static char *_3ffd1526dc64185d817ef7f7c7c5e5dga79XsTKFLQ33N2b[] = {
/* columns rows colors chars-per-pixel */
"64 64 232 2 ",
"   c #020202",
".  c #0C0C0C",
"X  c #080807",
"o  c #131313",
"O  c #1C1C1C",
"+  c #231A1F",
"@  c #251D22",
"#  c #281F24",
"$  c #262225",
"%  c #2A2126",
"&  c #2D252A",
"*  c #2C2B2D",
"=  c #272729",
"-  c #30272C",
";  c #31292E",
":  c #2D2E30",
">  c #222E3E",
",  c #322E31",
"<  c #382F34",
"1  c #2E3334",
"2  c #2F3837",
"3  c #23303F",
"4  c #333335",
"5  c #393236",
"6  c #313937",
"7  c #343738",
"8  c #3A353A",
"9  c #333B3A",
"0  c #3C3A3D",
"q  c #09292E",
"w  c #413B3E",
"e  c #4C383B",
"r  c #34413D",
"t  c #2F5638",
"y  c #267D24",
"u  c #36783A",
"i  c #2D742A",
"p  c #15721E",
"a  c #754533",
"s  c #565F34",
"d  c #232E43",
"f  c #243244",
"g  c #2B3545",
"h  c #2B3549",
"j  c #2C3A4C",
"k  c #273848",
"l  c #3D3D42",
"z  c #38384A",
"x  c #2D3D52",
"c  c #313F54",
"v  c #3A2D47",
"b  c #1E3349",
"n  c #433E42",
"m  c #483149",
"M  c #423651",
"N  c #552B47",
"B  c #66244B",
"V  c #75294F",
"C  c #792B4D",
"Z  c #7A2C51",
"A  c #643755",
"S  c #763354",
"D  c #71334F",
"F  c #374341",
"G  c #3A4444",
"H  c #3C4847",
"J  c #3E4949",
"K  c #39464C",
"L  c #2E4155",
"P  c #324155",
"I  c #3A4552",
"U  c #36465A",
"Y  c #2E4143",
"T  c #3B7445",
"R  c #3B624D",
"E  c #39536D",
"W  c #37516B",
"Q  c #444144",
"!  c #484446",
"~  c #43444A",
"^  c #4B4649",
"/  c #404C4C",
"(  c #434B4D",
")  c #4D494C",
"_  c #4E4845",
"`  c #504C4F",
"'  c #454E51",
"]  c #4A4C52",
"[  c #444E59",
"{  c #534E51",
"}  c #58475C",
"|  c #465153",
" . c #495457",
".. c #495456",
"X. c #4C555A",
"o. c #4F5A5D",
"O. c #48535A",
"+. c #565254",
"@. c #51565D",
"#. c #5B5659",
"$. c #51595F",
"%. c #5D585B",
"&. c #595456",
"*. c #644259",
"=. c #714E5B",
"-. c #43764A",
";. c #4B695C",
":. c #54675B",
">. c #547656",
",. c #4B7258",
"<. c #6B7254",
"1. c #4B5661",
"2. c #545D63",
"3. c #5A5E67",
"4. c #5C5C68",
"5. c #445E70",
"6. c #6B5466",
"7. c #675B69",
"8. c #775566",
"9. c #4E6A63",
"0. c #566166",
"q. c #586067",
"w. c #56646B",
"e. c #5A636A",
"r. c #5B666C",
"t. c #5B666C",
"y. c #566A6C",
"u. c #5B696E",
"i. c #536F62",
"p. c #5E6970",
"a. c #596571",
"s. c #666569",
"d. c #716666",
"f. c #796664",
"g. c #606871",
"h. c #6A766A",
"j. c #915D33",
"k. c #C75B39",
"l. c #C8663C",
"z. c #CC733B",
"x. c #D07C3D",
"c. c #852B4C",
"v. c #923A4F",
"b. c #9D3A4F",
"n. c #822A51",
"m. c #8B2D52",
"M. c #8D3252",
"N. c #883C57",
"B. c #943452",
"V. c #9C3B52",
"C. c #963751",
"Z. c #8A314E",
"A. c #A43D52",
"S. c #A73C4F",
"D. c #89465C",
"F. c #97485B",
"G. c #995F53",
"H. c #91574F",
"J. c #BB5C42",
"K. c #AA4353",
"L. c #A74253",
"P. c #B44A52",
"I. c #BC4D53",
"U. c #B14553",
"Y. c #A35F51",
"T. c #BE5253",
"R. c #BA5855",
"E. c #AB464F",
"W. c #986456",
"Q. c #856F52",
"!. c #A5624F",
"~. c #BB6243",
"^. c #B87E51",
"/. c #855364",
"(. c #846560",
"). c #A66B6E",
"_. c #AB5B62",
"`. c #C24D4C",
"'. c #C6504F",
"]. c #C35453",
"[. c #C75955",
"{. c #C44F51",
"}. c #C77C40",
"|. c #CA736B",
" X c #CF776F",
".X c #2A8228",
"XX c #37882B",
"oX c #49982D",
"OX c #438939",
"+X c #499632",
"@X c #569B35",
"#X c #448E2C",
"$X c #63A43D",
"%X c #73AB38",
"&X c #609A33",
"*X c #568D4A",
"=X c #689B53",
"-X c #6AA14A",
";X c #76AA50",
":X c #AD8F38",
">X c #D3893D",
",X c #CC823F",
"<X c #DCA43B",
"1X c #E3AA3B",
"2X c #EDBD39",
"3X c #E7B239",
"4X c #EEC138",
"5X c #87BA47",
"6X c #89B45A",
"7X c #91B856",
"8X c #AFB455",
"9X c #89836F",
"0X c #8CAB74",
"qX c #8F9952",
"wX c #CF9342",
"eX c #D39A44",
"rX c #CD8F41",
"tX c #C5A94B",
"yX c #D2837A",
"uX c #99C259",
"iX c #A6C35B",
"pX c #B1C769",
"aX c #456682",
"sX c #919886",
"dX c #B69289",
"fX c #A0A595",
"gX c #A6B2AF",
"hX c #99BD89",
"jX c #CCB49B",
"kX c #D1BEA0",
"lX c #D5D4A6",
"zX c #EFECCE",
/* pixels */
"    o * Q ~ 7 : * * : 7 Q Q Q 0 * * * * * * * * * * * & % % & 5 5 , 5 - & % % % & & * * * * * 1 G Q 5 7 7 * * * : 7 ~ Q * o     ",
"  o , Q 0 0 9 9 9 9 9 9 0 0 8 , , 4 9 9 9 9 9 9 9 9 6 4 - * - , 5 , , - - * * * - , 7 9 9 9 9 9 0 0 5 9 9 9 9 9 9 9 0 0 Q 4 o   ",
"o 4 ) n ; 7 9 G J J G 9 1 * * , 7 l J / / / / / / / H 9 4 4 4 * & & * , 4 4 4 4 4 9 H / / / / J F , * 1 9 G J J H 9 1 * n ` 8 O ",
"4 ! n 5 , 7 F J  ...J F 9 9 7 9 F ( X.o.o.o.o.o.o.X.| H 9 9 9 7 ; * 4 9 9 9 9 9 9 J ..o.o.o.o.X.( 8 , 7 9 J .. ./ r 7 * 5 ! ) Q ",
"Q 0 - - , 7 F | $.2.| J H H H H / X.2.e.e.e.e.e.e.e.$.| J H G 0 5 4 9 F H H H H J | 2.e.e.e.e.0.@.~ 0 l H | 2.$.' F 7 , - - w #.",
"! 5 % & , 7 F | 2.0.o.X. . . . .X.2.e.t.t.t.t.t.t.t.0.o.X. .| ( F 9 J |  . . . .X.$.0.t.t.t.t.e.2.X.] ]  .o.0.2.| F 7 , & % 5 %.",
") 5 % & , 7 F | 2.t.e.0.0.0.0.0.0.e.t.t.t.t.t.t.t.t.t.0.0.0.2.X.( H | 2.0.0.0.0.0.e.t.t.t.t.t.t.e.2.2.2.0.0.t.2.| F 7 , & % 5 %.",
") 5 % & , 7 F | 2.t.t.t.t.t.t.t.t.t.t.t.t.t.t.t.t.t.t.t.t.t.t.2. .| o.0.t.t.t.t.t.t.t.t.t.t.t.t.t.t.t.t.t.t.t.2.| F 7 , & % 5 #.",
") 5 % & , 7 F | 2.t.t.t.t.t.t.t.t.t.t.t.t.t.t.t.t.t.t.t.t.t.t.0.2.2.0.t.r.t.t.t.t.t.t.t.t.t.t.t.t.t.t.t.t.t.t.2.| F 7 , & % 5 +.",
"^ 5 % & * 4 0 ' 2.t.t.t.t.t.t.t.t.t.t.t.t.t.t.t.t.t.t.t.t.t.t.t.t.t.t.r.r.t.t.t.t.t.t.t.t.t.t.t.t.t.t.t.t.t.t.2.( 9 4 * & % 5 { ",
"Q 5 # # & * 7 ( 2.t.t.t.t.t.t.t.t.t.t.t.t.t.t.t.t.t.t.t.t.t.r.r.r.r.r.r.t.t.t.t.t.t.t.t.t.t.t.t.t.t.t.t.t.t.t.2.( 7 * & # # 5 ) ",
"0 0 - % % & 5 ~ 2.t.t.t.t.t.t.t.t.t.t.t.t.t.t.t.t.t.t.r.r.t.y.y.y.y.y.y.t.r.t.t.t.t.t.t.t.t.t.t.t.t.t.t.t.t.t.2.~ , & # % - 0 w ",
"= n Q , # % , Q $.t.t.t.t.t.t.t.t.t.t.t.t.t.t.t.t.t.t.t.y.y.7.6.6.6.6.7.y.t.t.t.t.t.t.t.t.t.t.t.t.t.t.t.t.t.t.$.n - # # < ! n $ ",
". * ` w # # * l @.t.t.t.t.t.t.t.t.t.t.t.t.t.t.t.t.t.r.8.D.D.M.m.U.P.U.N.=.8.t.t.t.t.t.t.t.t.t.t.t.t.t.t.t.t.t.@.l & # # n { * X ",
". * ) w $ $ : G $.t.t.t.t.t.t.t.t.t.t.t.t.t.t.t.t.s.D.K.].{.P.V.V.].[.P.b.P.F.s.t.t.t.t.t.t.t.t.t.t.t.t.t.t.t.$.G * $ # w { 4 o ",
"$ 0 n , $ * 9 ( 2.t.t.t.t.t.t.t.t.t.t.t.t.t.t.r.y.6.m.C.V.T.].].L.V.].].A.].].F.e.t.t.t.t.t.t.t.t.t.t.t.t.t.t.2.( 7 = $ , Q n 4 ",
"0 8 * % * 7 H | 2.t.t.t.t.t.t.t.t.t.t.t.t.t.t.r.y.7.m.m.m.C.].].].A.T.].K.P.[.L.e.t.t.t.t.t.t.t.t.t.t.t.t.t.t.2.| H 7 = % * 0 ) ",
"Q 5 % * 7 G | o.0.t.t.t.t.t.t.t.t.t.t.t.t.t.t.t.y.4.n.M.U.B.B.I.].P.P.].].U.P.N.3.y.t.t.t.t.t.t.t.t.t.t.t.t.t.0.o.| G 7 = $ 5 #.",
"! 5 * 1 F | 2.0.t.t.t.t.t.t.t.t.t.r.t.t.t.t.t.t.y.4.C m.A.I.L.V.L.].P.A.T.T.K.S w.r.t.t.r.r.t.t.t.t.t.t.t.t.t.t.0.2.| F 1 = 5 #.",
"^ 8 * 9 H X.0.t.t.t.t.t.t.t.t.t.t.W.f.w.t.t.p.r.p.7.B n.M.B.K.K.L.L.K.L.K.U.B.6.y.t.t.t.r.r.t.t.t.t.t.t.t.t.t.t.t.0.X.H 2 * 8 %.",
"^ 8 * 9 J X.q.t.t.t.t.t.t.r.r.t.s.k.!.y.r.y.;.;.;.X.e N B V n.n.n.Z n.n.n.Z B } p.t.t.t.r.t.t.t.t.t.t.t.t.t.t.t.t.0.X.H 2 * 8 %.",
"^ 5 * 7 H X.q.t.t.t.t.t.t.t.t.t.s.J.k.f.9.u ;X$X@X$X.Xi t w N v v M M M M U 5.x O.g.t.r.w.f.d.w.r.t.t.t.t.t.t.t.t.0.X.H 1 * 8 %.",
"^ 5 & , l ..q.t.t.t.t.t.t.t.t.y.G.z.z.Y.9.u OX;X@X@XXX.XoX#Xp 0X%.h x U E E gXgXL 1.u.w.d.J.f.w.r.t.t.t.t.t.t.t.t.e...l : & 8 #.",
"^ 5 % - 0 ] 3.t.t.t.t.t.t.r.w.s.~.>XrXk.W.a.;.*X+XoX+X.X%X5XoX0XH.h.t k Y K K h.U P u.t.!.k.W.a.t.t.t.t.t.t.t.t.t.0.] 8 * % 5 #.",
"^ 5 % - 0 ] 3.t.t.t.t.t.t.t.y.W.x.wXwXz.J.d.p.w.;.*XoXp @XiX%X@X@X$X&X#XXX#X+XR e.r.w.d.l.,Xl.d.w.r.t.t.t.t.t.t.t.0.] 8 * % 5 #.",
") 5 % - 0 ] 2.t.t.t.t.t.t.w.(.l.rX<XeX}.k.(.w.r.r.t.-.i y 6XpX%X9XkXlX7Xs $X*Xy.r.t.y.Y.z.eX>XG.t.t.t.t.t.t.t.t.t.2.] 8 - % 5 &.",
") 5 % & 8 ( $.0.t.t.t.t.t.a.W.l.eX2X1XrXl.(.w.r.t.r.a.y.u y -X5X&X<.dXH.Q.6X>.t.t.t.r.~.>X3X<Xl.d.w.r.t.t.t.t.t.q.$.( 8 - % 5 +.",
") 5 % & 5 G | o.0.t.t.t.r.w.f.l.1X2X2X<X~.d.t.r.r.t.y.sXlX0Xp y @X@Xi i OX,.t.t.t.t.a.W.3X4X2X^.s.t.r.t.t.t.t.0.o.' G 5 & % 5 +.",
") 5 % & , 9 H ..2.t.t.t.r.r.w.^.3X2X2X1XQ.w.t.t.t.t.8.jXzXzX0Xy XXXX.X0X9Xe.t.t.t.r.,.h.eX3X1XQ.a.r.t.t.t.t.t.2.| H 9 , & % 5 +.",
") 5 % & , 7 F | 2.t.t.t.t.r.r.>.:X<X<XtX=Xw.t.r.t./.S.F.jXzXzXhXXX.X=XzXjXD.r.y.r.9.-X-XqXtX8X-X-.r.t.t.t.t.t.2.| F 7 , & % 5 { ",
") 5 % & , 7 F | 2.t.t.t.t.r.i.;XiX8X8XpX5X;.r.y.8.I.[.P._.dXlXzXsXq fXzXdXS.D.7.p.;.=XiX;X7XuX+XT r.t.t.t.t.t.2.| F 7 , & % 5 { ",
") 5 % & * 4 9 ( 2.t.t.t.t.r.t.>.*X6XuX5X@X-.t.s.N.K.].].I.S.|.).@.d ] ).K.`.C.A.8.y.i ;XpX6X+XT p.t.t.t.t.t.t.2.( 9 4 * % % 5 { ",
"^ 5 # # & * 7 ( 2.t.t.t.t.t.t.t.0.;.u XXXXH.F.N.m.V.I.T.].].'.Z.d L d c.yX XZ.V.I.8.R.s +XOXT u.t.t.t.t.t.t.t.2.( 7 * % # # < ^ ",
"Q w - # # & < ~ 2.t.t.t.t.t.t.t.r.p.a.:.H.[.{.K.B.B.M.K.].R.yXv.h L h v. X XZ.V F.L.].b._ 0.g.t.t.t.t.t.t.t.t.$.~ , % # % - 0 0 ",
"* ! ) < # # - G $.t.t.t.t.t.t.t.t.t.t.g./.S.].[.L.V V C.T.].].v.h P h v.`.`.M.N B A.C.S 7.u.t.t.t.t.t.t.t.t.t.@.n - # # 5 ^ w $ ",
". 4 +.n # # * l @.t.t.t.t.t.t.t.t.t.t.y.3.V S.P.m.B Z m.P.[.|.v.h P h v.[.].D.e.*.A A 4.y.t.t.t.t.t.t.t.t.t.t.@.l & @ # n ) $ X ",
"  O ) ! & & 7 ( 2.t.t.t.t.t.t.t.t.t.t.t.y.4.S c.B } B m.I.[. Xv.d b d v.].].D.y.u.y.y.t.t.t.t.t.t.t.t.t.t.t.t.@.l & + # Q n o   ",
"  O ^ ! , 0 ' @.0.t.t.t.t.t.t.t.r.r.t.t.t.y.7.A 4.r.A m.K.].'.v.e _ e v.].].D.t.t.t.t.t.t.t.t.t.t.t.t.t.t.t.t.@.l & + # Q 0 .   ",
"X = +.! 5 ( 2.t.t.t.t.t.t.t.t.t.t.t.t.t.t.t.y.y.t.y.*.n.C.[.yXv.a j.a v.].].F.t.r.t.t.t.t.t.t.t.t.t.t.t.t.t.t.o.l & @ $ Q Q O   ",
"@ n { 0 5 ] 2.t.t.t.t.t.t.t.t.t.t.t.t.t.t.t.t.t.t.y.*.m.C.].[.C.d f d v.[.P.*.y.t.t.t.t.t.t.t.t.t.t.t.t.t.t.t.$.J 7 * : l ^ 5 o ",
"5 0 5 , 8 ] 2.t.t.t.t.t.t.t.t.t.t.t.t.t.t.t.t.t.t.t.e.D n.L.I.S d > f m Z.N j u.t.t.t.t.t.t.t.t.t.t.t.t.t.t.t.2./ 9 9 9 9 0 0 5 ",
"n 5 & - 8 ~ X.2.e.t.t.t.t.t.t.t.t.t.t.t.t.t.t.t.t.r.t.g v m m g I I h x k k I p.t.t.t.t.t.t.t.t.t.t.t.t.t.t.t.2.| F r r 2 * 5 ) ",
"! 5 % & 5 0 ( X.0.t.t.t.t.t.t.t.t.t.t.t.t.t.t.t.t.t.r.j j x L f [ 0.3 c P x P 0.r.t.t.t.t.t.t.t.t.t.t.t.t.t.t.2.| F r r 1 * 5 { ",
"^ 5 % & , 7 G | 2.t.t.t.t.t.t.t.t.t.t.t.t.t.t.t.t.u.[ h c c j h 0.u.I f c c h O.u.t.r.t.t.t.t.t.t.t.t.t.t.t.t.2.| F r 9 7 * 5 { ",
"^ 5 % & , 7 F | 2.t.t.t.t.t.t.t.t.t.t.t.t.t.t.t.t.p.I f P c f [ u.p.[ f c c j O.u.t.t.t.t.t.t.t.t.t.t.t.t.t.t.2.| F 9 7 : & 5 ` ",
"^ 5 % & , 7 F | 2.t.t.t.t.t.t.t.t.t.t.t.t.t.t.t.t.p.I f P c d 2.u.t.t.h j P j o.u.t.t.t.t.t.t.t.t.t.t.t.t.t.t.2.| F 9 4 * & 5 ) ",
"^ 5 % & , 7 F | 2.t.t.t.t.t.t.t.t.t.t.t.t.t.t.t.t.g.I > j h K t.t.t.u.[ f x j K u.u.t.t.t.t.t.t.t.t.t.t.t.t.t.2.| F 7 , & % , ^ ",
") 5 % & , 7 F | 2.t.t.t.t.t.t.t.t.t.t.t.t.t.t.t.r.t.P j U L I t.t.t.r.2.> h j U O.1.u.t.t.t.e.e.t.t.t.t.t.t.t.2.| F 7 , & % , ! ",
"^ 5 % & , 7 F / o.2.e.t.t.t.t.t.t.t.t.q.2.2.0.t.u.I x U E aXU o.u.e.3.O.h P P E E W 1.t.2.$.@.@.2.2.t.t.t.e.0.X./ F 7 * & % , Q ",
"^ 5 % & , 7 r H / X.2.t.t.t.t.t.t.t.e.@.] ] @.e.r.c h h j U x 2.r.2.X.~ h h h h U L [ q.] ~ l l ~ @.e.t.t.2. ./ H 9 1 & # # , 0 ",
") 5 % & , 7 9 r G / X.2.0.0.0.0.0.0.2.] l l ] 2.e.0.2.0.2.2.2.0.0.$.( 0 7 9 G ' X.o.2.X.Q 5 - & 5 ] 2.0.2.X.J r 9 9 1 $ % - 8 4 ",
") 5 # % & : 7 9 9 H /  .X.X. . . . .| G 5 < l ] @.q.r.r.t.2.X.X. .| G 9 4 1 9 J  .X. .( 0 - & $ * G | X...J 9 1 1 4 * $ 5 Q 8 O ",
") 5 # # % & , 7 9 r G H H H H H H H G 9 * & , 8 ) 2.e.e.2.X./ J H H r 9 1 * * 7 G H H F 5 - % # = 9 H H G 9 * = * * & % n ! $ X ",
") 5 # # % % & * 1 7 9 9 9 r r r r 9 9 : $ % & , l ..o.$.X.' G r 9 9 9 7 : $ $ * 9 9 9 9 4 - % # $ * 1 1 1 1 = & & & # # w Q $ X ",
") 5 % % % % % % & * : 4 9 9 r r 9 9 4 * $ # % - 8 H / / / H F 9 7 4 4 , * $ # & 4 7 9 9 4 - % # # $ & = = * 1 : = $ # # - 0 5 O ",
") 5 % & & % # # # $ & * 4 6 6 9 9 4 , & # # % - 4 9 F F F r 9 7 4 - - - % # # & - 4 9 6 4 - % # # $ $ $ = * 1 1 * $ # # % & 5 4 ",
"^ 5 % & - & % # # # % % = * * * : 1 4 * $ # # & : 9 r r 9 9 7 4 ; - & % # # # % * , 4 4 , - % # # = * * * 1 9 9 1 * = & % % , 0 ",
"Q 0 - - - - & % # + # # $ $ $ $ = 1 1 * $ @ @ $ * 2 9 r 9 7 , - - & % # # @ # % & - * - - & % # $ 1 1 9 9 9 9 9 6 2 4 * & % , w ",
"0 ` ^ 5 - - - % # @ # $ % & = = = * 1 * $ @ + @ & 1 9 9 9 4 * & & % # @ + + @ % & & & & & % % % & 1 6 9 r r 9 9 9 6 4 , & % , 0 ",
"O Q %.n & & & % # # % & * 1 1 1 1 * & $ @ + + @ % * 7 9 9 1 & # # # # + + + + # # # # # # # % & & * 4 6 9 9 7 4 4 , , - & % , 0 ",
"X = +.! % & & % # # % - , 7 9 9 7 * $ # @ + # # % & * 4 1 * $ $ $ $ $ # # @ + @ $ $ # # # # # & & - , 4 9 7 , - - - - - & % , n ",
"  O ) ^ & & & % # # % - , 4 4 4 4 * % # # @ # % % % & = * = & & * * = % # # # & * = & % # @ # # & - - , 4 4 - - - - & & # # , n ",
"  o 0 ) 5 - & % # # % & - , , - - * & % # # % & % # # $ $ & & , 4 7 , - % # $ * 1 1 - & # # # @ # & - - - - - - - - & # % - 8 0 ",
"  X = ) { w - # # @ # & & - - & & & % % # # # % % % # # % & - , 4 7 , - & # $ * 7 4 - - & # # @ # % & & - - - - - - & # , Q n = "
};
