/* XPM */
static char *_ed15980ec0845c3b186639c8f1f0de8WvksPChNw4EL6rTX[] = {
/* columns rows colors chars-per-pixel */
"64 64 192 2 ",
"   c #670E1F",
".  c #6D181C",
"X  c #71131F",
"o  c #5E0725",
"O  c #5E0C25",
"+  c #5E0C29",
"@  c #5F1027",
"#  c #5F112A",
"$  c #630E26",
"%  c #6B0E24",
"&  c #620E29",
"*  c #6B0F29",
"=  c #651126",
"-  c #6C1225",
";  c #671826",
":  c #6F1825",
">  c #64122A",
",  c #6B142A",
"<  c #6D192C",
"1  c #711425",
"2  c #781626",
"3  c #741A25",
"4  c #7A1C25",
"5  c #721429",
"6  c #741B2A",
"7  c #791D29",
"8  c #651431",
"9  c #681730",
"0  c #671B32",
"q  c #6B1B32",
"w  c #731D31",
"e  c #732027",
"r  c #7B2125",
"t  c #73212A",
"y  c #7B232B",
"u  c #7F292A",
"i  c #6D2036",
"p  c #7C2333",
"a  c #AC2C1F",
"s  c #B22C1F",
"d  c #AB331F",
"f  c #B4351F",
"g  c #BA361E",
"h  c #B5391F",
"j  c #BB391F",
"k  c #801C27",
"l  c #9F2822",
"z  c #A32624",
"x  c #A52B25",
"c  c #AC2C24",
"v  c #A52B29",
"b  c #AB2C29",
"n  c #B32D24",
"m  c #B82E25",
"M  c #B22E28",
"N  c #AD3224",
"B  c #AF3B24",
"V  c #A5342C",
"C  c #AD332B",
"Z  c #AF382F",
"A  c #B43324",
"S  c #BA3523",
"D  c #B43A23",
"F  c #BB3A23",
"G  c #B3342A",
"H  c #B9352A",
"J  c #B53B2A",
"K  c #BA3C2E",
"L  c #BA3B2A",
"P  c #A63534",
"I  c #AC3431",
"U  c #AC3A34",
"Y  c #B73731",
"T  c #B63A31",
"R  c #C03624",
"E  c #C03A23",
"W  c #BE4425",
"Q  c #B7432E",
"!  c #B8412A",
"~  c #BE422C",
"^  c #BE4630",
"/  c #E36D1E",
"(  c #E6701E",
")  c #EC731E",
"_  c #E6781F",
"`  c #EF7A1F",
"'  c #F1761F",
"]  c #F0781F",
"[  c #C24126",
"{  c #CD6229",
"}  c #D66326",
"|  c #D66727",
" . c #D66625",
".. c #DD6527",
"X. c #DB6625",
"o. c #D76B25",
"O. c #D96B23",
"+. c #DD6926",
"@. c #DF6D26",
"#. c #DC6B25",
"$. c #D56628",
"%. c #D4642A",
"&. c #DB662A",
"*. c #D76B2A",
"=. c #D8682A",
"-. c #DC6A28",
";. c #D86C29",
":. c #DC6B2A",
">. c #DC7327",
",. c #DD7326",
"<. c #DD712A",
"1. c #DE7B28",
"2. c #DA6E30",
"3. c #E36724",
"4. c #E66F23",
"5. c #E26E27",
"6. c #E56F24",
"7. c #E36C25",
"8. c #ED6F26",
"9. c #EA6E24",
"0. c #E26B29",
"q. c #E36C29",
"w. c #E96D28",
"e. c #E47123",
"r. c #E07521",
"t. c #E37125",
"y. c #E47225",
"u. c #EF7522",
"i. c #EB7124",
"p. c #EB7324",
"a. c #E57B26",
"s. c #EB7826",
"d. c #EC7B25",
"f. c #E17128",
"g. c #E37728",
"h. c #E6762B",
"j. c #E4732A",
"k. c #EA742A",
"l. c #E47C2A",
"z. c #EB7E2A",
"x. c #EC7E2B",
"c. c #EC7B2A",
"v. c #F67523",
"b. c #F17623",
"n. c #F27A24",
"m. c #F87921",
"M. c #F07C28",
"N. c #F27E2B",
"B. c #E06C31",
"V. c #E57731",
"C. c #F47E34",
"Z. c #EC8125",
"A. c #E5812B",
"S. c #ED8029",
"D. c #EC8329",
"F. c #F18224",
"G. c #F1812B",
"H. c #F2882D",
"J. c #EE8A30",
"K. c #EB8333",
"L. c #ECA53E",
"P. c #EEAE3F",
"I. c #EEAC3E",
"U. c #F2AC3D",
"Y. c #F8AD3E",
"T. c #EFB13D",
"R. c #F2B03D",
"E. c #F4B33D",
"W. c #F9B43D",
"Q. c #F5BA3E",
"!. c #F9BA3E",
"~. c #FCC03E",
"^. c #E7A540",
"/. c #EAA641",
"(. c #E7AD45",
"). c #ECAD42",
"_. c #F2AC41",
"`. c #E7B745",
"'. c #ECB343",
"]. c #EEBA44",
"[. c #ECB148",
"{. c #F4B442",
"}. c #FBB742",
"|. c #F5BC44",
" X c #F5BB42",
".X c #F9BB44",
"XX c #FABF45",
"oX c #F9BB42",
"OX c #F8B748",
"+X c #F6C244",
"@X c #FBC247",
"#X c #F9C342",
/* pixels */
"s.b.=.: l n n n n n n A 6.|.@Xf.- O $ > $ $ $ $ $ $ $ $ $ , g.W.s.v.$.: x A n n n n n K h.|.XX@.1 + + > $ $ $ $ $ = q , O - g..X",
"u.+.7 # 1 x n A c c c c D z.R.! z - $ $ & $ $ $ $ $ $ & > 1 0.M.] X.3 $ 1 x n M b c G N D D.P.L x 5 $ + & $ $ $ $ + > = & 5 5.x.",
"5.7 + $ + - c x - = - $ - +.r.1 b n z 1 > - - - = - - - c M D 8.e.1 + % + - c b , < < $ - +.>.1 a G z - - - - - - - = - c n h i.",
"t.< $ = $ - v - O $ $ & + 3 } 3 % b S b c c c c G Z c c c x - -.4.- $ > $ X x < q > & & + 7  .3 % b A b c c c n c c c c c x 2 -.",
"5.< + $ > b c - + & $ = $ $ A ..e % v n n n n N G n n M 1 $ $ 3 O.< + $ , v c < > O $ = $ $ D ..6 > x n n n A c n c n c 1 $ $ , ",
"q.3 + + - c S v - > & $ & = c Z.(.e % b n n C w , $ - v z - + , -.3 O + 1 c n c % > + $ + = c D.(.e - c n A x - * = - v v - $ & ",
"9.N - - x n I A n b - - - * D R. X-.A A n V < O $ & $ - x c & 3 3.b , - v n c a n b 1 % = - D R.{.-.f A n x , + $ $ $ - c c $ < ",
") S b c n C < % v c b v c A i.k.D F 3.3.D 4 , $ & > = + - x 4 =.i.S c c A b - - c n v v c G i.j.F S 7.q.A 2 , $ = $ $ + , z 4 -.",
"3.A n m C 5 + > $ = - * A e.q.A c s A S ..t.X.4 O $ $ & 1 A t.M.q.A s A x - & $ = $ , * A i.3.D n c J ~ &.t.X.3 O + $ + 1 D f.M.",
"S n G U - $ $ $ $ $ & 1 S ..3 , N n n x 4 X.n.X.3 - = 7 =.s.Q.T.F n A v - & $ $ & + + - F +.. % N A G z k @.n.X.6 - , 3 +.c.|. X",
"7.E b < O + O $ & + 3 =.7.C $ $ x A b < + 3 =.F.).l.6.+.i.s.{.F.3.F x - + $ $ $ $ + 3 -.4.d O > V G c - O 7 -.Z.).l.6.0.i.s._.F.",
"b.w.A < - - - - - 3 +.s.A - & $ - c c < $ O 3 :.Q.!.t.F A A D +.G.k.D - - - - - , 3 -.u.A - & > 6 b c , $ & 3 <.|.W.q.F N c D @.",
"5.) w.j.g.f.5.,.5.5.D._.C $ $ $ - c n c , @ + 1 g.t.S x - $ $ p :.u.6.y.g.f.6.y.6.6.D.{.N $ & & 1 c n c - O O 3 l.t.A b = & $ < ",
"3  .F.{.#XQ.D.W.n.u.Q.{.N - , - b n M A v - & 3 3.R v - $ > > + 7 o.F.{.#XQ.D.W.n.b.Q.'.N - $ 1 c n G n x 1 $ 4 5.F v - $ $ $ > ",
"O 7 O.z.!.+Xa.y.@.5.l.p.g G J c c c c c c c J 0.4.N % $ & q > $ + 4 +.A.}.+X_ g.5.5.g.p.D A G c n c c c c b D 0.6.N - + $ $ $ > ",
"= O 3 +.d.W.>.3 = - 3 3.k.k.4.F % $ % $ % L _.Z.S c > $ $ > $ $ > O 7 3.Z.W.<.3 = = 7 3.i.i.8.D % $ % $ % L _.Z.S b > > $ $ $ > ",
"$ O * N i.i.D - $ $ - J k.4.t.&.3 , < , 4 $.z.^.S b - $ $ $ $ & > + , A i.e.D - & = - D w.4.6.$.3 , < ; 7  .a./.f c 6 > $ $ $ > ",
"+ 1 c F 7.F n c c a C G N 2 > 3 -.l.).s.%.6 - C n b $ $ $ $ $ $ + 1 N F 7.F n c c c M A A 3 > 3 -.A.).y.{ 3 - N H G , > = = $ > ",
", A k.7.g M n n n n M n b $ + - -.}.~.<.3 + $ % n c , $ & & $ $ - N i.7.S n n n H A n A b $ + - q.!.!.-.3 O $ 5 G c - & $ + $ > ",
"A i.i.D b c c c b c n n c 1 $ & 6 r.-.6 O = $ - c n c - = = $ * D h.4.D c c c c C N n n c - $ & 7 a.;.6 O $ O 6 G n x 1 = = & > ",
"c.W.1., % - - - = - b A n x - $ t X.3 + & + 1 x A A n c c c 3 d p.W.,., - - < 6 = - c n n v - $ y &.3 + & $ 1 b n A c c c x 3 N ",
"z.#X).t O > & & & $ , x N A c N 5.4.> + + - I m c c c c n G <.) z.@X).3 + > > > $ $ , x N n b N 6.+.> + & - b n c c c c n D f.u.",
"k.E.D.X.3 & $ & & & $ $ - c A F d.a.3 , , C G b - - = - x F U.p.t.E.H. .e 9 O $ & & $ $ - c A S s.h.6 , - c m b - - = - x F U.a.",
"h >.t.) o.7 O $ , - 3 , : D 4.a.oX{.t.q.K N x 1 & $ & + < 5.f.g g t.t.u.@.7 O $ - - 3 - 3 D 4.s.|.{.y.3.D c x - & $ & O 5 5.@.F ",
"c < 3 :.n.-.3 3 O.e.3.3.5.6.4.c.T.s.s.x.@.r $ & & > $ O r o.4 x N - 3 -.b.-.3 3 @.i.0.3.3.6.5.h._.s.b.u.+.4 $ $ $ = = + y X.4 x ",
"c * # p =.b.3.0.s.6.g S A v 2 N A D B.k.d.:.3 & $ $ O 3 4.-.= - b - + 1 =.b.+.0.i.w.S S A v 3 N S A -.s.x.&.: $ + $ + 7 4.=.$ = ",
"n C < & 3 0.F A A f n z % $ % c b = r h.E.Z.@.7 - , 3 >.X.3 $ = c b = + 7 0.S A A A A z - = % c Z , r s.U.Z.=.7 - - 7 >.&.: $ 0 ",
"G G - o > +.S n n c v - + $ - x - 3 =.i._ i.i.q.t.4.z.).u , + 1 c c , + = 5.F c n c x - + + 1 I , 3 -.i.a.i.i.5.4.6.A.).r , $ < ",
"G b $ O 7 / j.j b 1 $ & & - v - 1 &.9.S c A c F 9.u.).s.j.+.7 x n b & O 7 i.t.g b 1 = & + 1 V - 5 -.9.S c A N F 9.u.).a.t.X.7 v ",
"S A 1 7 @.D.!.l.g b - & - b b 1 x A A v - $ - z A A A S 4.s.j.F S A 1 3 3.H.!.l.F b - $ 6 I b - x A c v - $ - z A A A S 9.b.3.F ",
"q.i.t.i.s.).`.).6.j A A A S A c - $ $ % $ + $ % - z c b G J i.4.w.i.q.i.s.).`.).9.j N A G A A c % $ $   $ + $ % - z c b c D i.( ",
"[ t.x.y.:.u < y q.k.k.j.k.k.c.<.< > > > > > > > > , , 6 q 6 g.d.W k.x.h.@.y < u 5.j.w.q.k.k.c.q.< > , > > > > > > < < < , 6 j.G.",
"k.s.:.y C G b b J L J ^ h.{.XXh.7 > < , > > > > > > i q # < g.{.h.M.2.7 C N b N A L H L h.{.XXf.6 > > > > > > > > > > > > < g.OX",
"u.=.3 O - c n n c b Z b A Z.R.L x - $ $ $ + + O O + > $ $ - +.d.b.o.3 + - x n n c c c b A Z.R.L z 1 $ $ $ $ O + $ + $ $ $ - 4.d.",
"j.r O & & % c x - w < = 1 X.a.5 x n x 1 $ - - = = - $ - c c D i.t.3 O & & - n v - - - $ 1 -.r.2 x n v - * - % , < - = - b b A i.",
"j.- O = % , x 6 8 $ $ + + 4 X.3 % v n c c c c c c c c c n a 3 o.e.- $ = $ 1 x - O $ $ $ O 4 =.7 $ v m b c b N G c c c c n x 7 ;.",
"t.: O = & b c 5 8 O $ > & $ A ..< % v n n n n c n c c n 1 > + 4 -.- + = $ c b * + + $ > & $ D ..< = x n A G H c c c c c 5 > $ - ",
"e.3 O # - b n b - = > $ $ = c d.).t % b n n b 1 $ = - v c - O - X.3 + # - G A v - = > $ $ > c D.(.t 1 c J H v - $ = - x x - $ + ",
"t.G % % x A c c n b - - = * B ).|.@.D A M v - + $ $ $ - b c & 3 3.A - - C H b c n x - - = * D _.|.:.A A G b % + $ $ $ - b c $ - ",
"i.S b c S c - - c c z b c A 6.p.D F 7.3.D 4 ; $ $ > = + - x 7 =.p.S b G A b , - c c x v c f j.t.h S 3.7.A 4 , $ $ $ = + - x 4 *.",
"q.S n n x - + $ $ - , % A w.@.D n n J ~ X.4.-.4 O + & $ - D @.d.6.H T A v - $ $ $ - - % A i.5.D c c S j ..t.o.3 + $ & $ - A @.d.",
"F n n x - & = > & $ + < D 3.4 - c H Y v 7 @.n.X.t , , 3 =.p.!.T.F n H x - $ > > & $ + , F +.3 - c n n v y o.n.X.6 , , 3 &.s. XQ.",
"q.F c - O $ $ $ $ O 3 O.q.A $ $ C H b 5 O 6 &.Z.'.1.4.@.s.s.).Z.7.F b - + $ $ $ $ + 3 +.q.N $ % v n c 1 + 3 X.F.'.1.5.@.i.s.{.J.",
"C.w.A - - - , < , 3 &.s.h - > q 6 c c , & O 7 o.!.}.h.E n A D +.M.4.D - , - , - - 3 =.k.D - & $ < b n - & O 3 @.oX}.j.S f G Q :.",
"f.u.i.h.g.g.5.,.t.5.Z.T.N $ $ > - c A b - + + 1 f.a.L z - $ % 3 =.` w.h.y.h.t.y.f.5.G.{.C , > $ - c n x - & $ 1 y.h.S x 5 , , - ",
"r  .M.Q.#XQ.Z.W.n.` Q.|.A - $ - v n n m b - & 3 0.S v - & $ $ $ 7 X.n.Q.#XQ.D.Y.s.n.}.'.N w > - v n n n b - & 3 -.j v 1 q > + + ",
"+ 3 X.Z. X+Xs.g.t.e.h.p.g N N c c c c c n b D 3.6.d - $ = $ & & + 4 +.Z.|.+Xs.g.5./ h.s.~ N N c c c c c c b B +.9.N % + > $ $ $ ",
"= O : 3.G.{.<.2 - = 4 &.i.i.i.L - % $ $ % J U.D.S c , > $ $ $ $ > + 3 3.D.{.>.3 , ; y q.) i.9.L - = $ $ % L _.D.S c $ & $ & $ $ ",
"> $ % A 9.y.A - & = % A w.e.t.&.1 = < , 7  .Z.L.A b w > $ $ $ $ & $ * g 9.t.D - $ < < D 9.t.e.&.- = < , 3 X.A./.A b % $ $ $ $ $ ",
"$ , c S 3.S n c c c c n A 7 , 3 X.l.).p.%.t 5 C A Z < + $ $ $ $ + - c S 0.F n n c c c n N 7 , 4 X.h.'.a.%.7 1 C S c $ + $ & $ $ ",
", c 6.3.F n n A A n n n c = + % o. XoX,.3 + & - Z G - + $ $ $ & - N 6.3.F n n n n n n n x = O , @.Q.oX<.3 + O % c c - + $ $ $ & ",
"A j.i.D b c c N Z c c n b - $ & 3 y.<.e O $ > w c n v - $ - + % A j.8.D c c c c c n n n c - $ & < y.>.6 + $ $ - c n z 1 = - $ $ ",
"c.W.l.- % , < 6 , - x A n v - $ 3 &.4 O $ + - v n A n c c x 1 C k.W.l.< $ - - - - 5 c n n v - $ 3 X.4 O $ > - x c H n b c x 2 c ",
"d.+X{.t + > 8 & $ & , x c n b A 3.4.- O $ , x s c c c c n A :.s.d.+X[.e O $ $ & & & , b b n c A 3.4.= + 0 < x n c c c c n A q.s.",
"c.E.F.X.p 8 $ & & + + % % b S A s.h.3 - - c S v - = - - x L U.d.p.Q.Z.&.3 + = > & O + $ - c A S s.h.3 w 6 x S x - - - - x F P.a.",
"F @.i.b.-.7 O $ , - - = : D 4.s. X{.y.5.A c c - & $ $ + 1 +.j.S L @.t.M.;.3 O $ , - - , : D 4.s..X{.V.5.d c b - & $ & + 1 5.q.S ",
"c < 3 =.m.+.3 3 X.j.+.+.3.4.5.p.{.a.b.b.3.4 $ $ $ $ = + 3 -.4 z c 5 p *.n.@.3 3 o.t.+.-.0.4.4.c.P.K.M.u.5.4 $ & $ $ $ + 3 X.4 v ",
"n - O 3 X.u.@.@.i.9.F S S N 4 N S A X.s.d.;.3 O = & & 2 -.5., - C 6 + 3 *.u.3.0.i.4.F S S N 2 N F D ..s.d.;.- $ + + + 2 5.+.- $ ",
"G c $ O 3 4.F A A A n x - $ % c C * 7 g.E.M.+.7 , , 3 @.t.3 $ < G b * O 3 +.F S A A n x - $ = n b & r a.E.M.O.r < , 3 >.-.3 $ > ",
"A n = & > +.S c n c v 1 $ $ - P < 1  .i.y.i.i.@.5.e.l.).u % # w c c - & , 3.S c c c c 5 & + - v - 3 =.i.k.i.i.@.4.4.l.P.t $ > - ",
"A c , + 3 q.t.S b 5 - + + 1 V < < X.i.E c N c g w.s._.l.5.X.7 z n b & + 3 q.k.S c 1 $ $ + 1 x - 5 =.i.S c N c F 9.s.).l.j.2.4 x ",
"S A - - X.Z.!.a.S z - $ < c b * z A A x , $ 1 x A S D g 8.b.5.S S A - 1 -.D.}.a.S v * $ - x c 1 x G A x - $ 1 v A S D F k.s.5.S ",
"5.i.q.4.M.).].).j.F A A J L g N - % % - & $ $ $ % z c b a A 9.) 4.i.q.4.c.I.].).j.j A A A S S N - $ % % + + $ $ % z n G N N i.i.",
"F 4.b.s.t.y q t 6.i.4.i.4.k.4.0., + $ & $ $ $ & $ - , - $ 1 6.i.F 4.b.' 4.y < y e.i.h.i.9.k.9.0.- + & & $ $ $ $ = w < - & 1 q.b."
};
