/* XPM */
static char *_41811641ae647d7f08d83b0d2057745aSjP5pttCRhHfmEi[] = {
/* columns rows colors chars-per-pixel */
"64 64 219 2 ",
"   c #30313E",
".  c #29303E",
"X  c #09292E",
"o  c #4B3A3B",
"O  c #2B5A3D",
"+  c #355A39",
"@  c #294D39",
"#  c #187521",
"$  c #226B28",
"%  c #267B27",
"&  c #32673A",
"*  c #2F7932",
"=  c #387437",
"-  c #33732A",
";  c #126F1B",
":  c #5A4638",
">  c #754533",
",  c #437136",
"<  c #656E36",
"1  c #1E3349",
"2  c #232E43",
"3  c #3A2E47",
"4  c #253244",
"5  c #2B3546",
"6  c #2B3549",
"7  c #2C394C",
"8  c #273848",
"9  c #353946",
"0  c #393A47",
"q  c #343D4B",
"w  c #3B3E4B",
"e  c #373544",
"r  c #2C3E52",
"t  c #313E53",
"y  c #3E3F50",
"u  c #5A2C4B",
"i  c #453D4D",
"p  c #493649",
"a  c #59334F",
"s  c #57334A",
"d  c #423651",
"f  c #4B3D51",
"g  c #423F51",
"h  c #553C51",
"j  c #583A51",
"k  c #4F2847",
"l  c #69244D",
"z  c #652C4E",
"x  c #63244B",
"c  c #75294F",
"v  c #792B4F",
"b  c #772D51",
"n  c #7B3B55",
"m  c #753552",
"M  c #6F394E",
"N  c #2F4543",
"B  c #37414C",
"V  c #3C404C",
"C  c #354B4B",
"Z  c #364947",
"A  c #395646",
"S  c #2F4155",
"D  c #324156",
"F  c #3F4450",
"G  c #31445A",
"H  c #3D425A",
"J  c #39526B",
"K  c #3A5773",
"L  c #374D64",
"P  c #44424E",
"I  c #4C474A",
"U  c #59494D",
"Y  c #57464C",
"T  c #414552",
"R  c #434A55",
"E  c #464E59",
"W  c #484F5A",
"Q  c #4B4A55",
"!  c #5D4752",
"~  c #47505B",
"^  c #4A535D",
"/  c #51515C",
"(  c #644A4C",
")  c #6F4C49",
"_  c #694155",
"`  c #6E4F54",
"'  c #466643",
"]  c #4C6D4A",
"[  c #726C48",
"{  c #4C5661",
"}  c #4E5A63",
"|  c #505E67",
" . c #505F68",
".. c #435E70",
"X. c #53646B",
"o. c #55686F",
"O. c #5A646D",
"+. c #566B71",
"@. c #596E74",
"#. c #5A7276",
"$. c #5A7175",
"%. c #5C7578",
"&. c #5C7579",
"*. c #687468",
"=. c #666C70",
"-. c #915D33",
";. c #B95D3F",
":. c #C65B3C",
">. c #D25F37",
",. c #C7643D",
"<. c #CC753D",
"1. c #D1743D",
"2. c #872C4C",
"3. c #86334C",
"4. c #933A4F",
"5. c #822A51",
"6. c #8B2D53",
"7. c #942F54",
"8. c #8D3252",
"9. c #873D54",
"0. c #943452",
"q. c #9A3653",
"w. c #923A50",
"e. c #9D3B52",
"r. c #A33D52",
"t. c #A83F54",
"y. c #A93F4E",
"u. c #844E48",
"i. c #864E47",
"p. c #975547",
"a. c #874156",
"s. c #974457",
"d. c #8A5A57",
"f. c #935647",
"g. c #B75C41",
"h. c #A44152",
"j. c #AB4353",
"k. c #AF4851",
"l. c #B44A53",
"z. c #BC4D53",
"x. c #B24654",
"c. c #BE5253",
"v. c #B95854",
"b. c #AA4F4B",
"n. c #876F43",
"m. c #AF7548",
"M. c #AB5B62",
"N. c #A66B6E",
"B. c #C24D4C",
"V. c #C4554B",
"C. c #C35453",
"Z. c #C45854",
"A. c #C95854",
"S. c #C86B40",
"D. c #CA736B",
"F. c #CF776F",
"G. c #2A8228",
"H. c #3D8C2C",
"J. c #348529",
"K. c #3B902C",
"L. c #48972E",
"P. c #448A36",
"I. c #499733",
"U. c #549C34",
"Y. c #589A36",
"T. c #4A952D",
"R. c #668F36",
"E. c #5AA631",
"W. c #63A33D",
"Q. c #63AB3F",
"!. c #77AA3C",
"~. c #70AC34",
"^. c #5B9345",
"/. c #649D4A",
"(. c #689458",
"). c #6AA14A",
"_. c #74AC4A",
"`. c #79AB57",
"'. c #AD9039",
"]. c #D48B3E",
"[. c #CD823F",
"{. c #DBA43B",
"}. c #E4AB3C",
"|. c #EDBC39",
" X c #E7B239",
".X c #EEC138",
"XX c #87BB44",
"oX c #86B355",
"OX c #95BC5B",
"+X c #84AF55",
"@X c #B1B95B",
"#X c #ADAA49",
"$X c #8F866E",
"%X c #8BA976",
"&X c #8DAD72",
"*X c #8F9951",
"=X c #CD8F42",
"-X c #CE9442",
";X c #D29B41",
":X c #D59846",
">X c #C6AA4C",
",X c #D28379",
"<X c #99C657",
"1X c #A6C45B",
"2X c #B2C769",
"3X c #456682",
"4X c #89918E",
"5X c #B5928A",
"6X c #99BD89",
"7X c #A0A595",
"8X c #989FA6",
"9X c #A7B2AF",
"0X c #CDB59B",
"qX c #D0B59E",
"wX c #D1BEA0",
"eX c #D5E598",
"rX c #D5CBAD",
"tX c #F6F2D5",
"yX c #ECEACB",
/* pixels */
"8X$.#.+.} T R o.%.#.X.~ w } #.%.o.{ V E +.&.@.| E V X.&.#.X.^ w { @.&.+.} T R o.&.#.X.~ w } #.%.o.{ V E @.&.@.| E F X.%.%.X.O.8X",
"O.X.X.X.{ R R } o.X.} E w { X.X.| { F E | o.X.{ R V { o.X.} ~ V ~ X.o.X.{ T T } o.X.} ~ w { X.o.| ^ V E | o.X.{ E V { o.X.} | @.",
"{ { { { ^ R R ^ ^ ^ ~ V V ~ { { { { V R ^ ^ { ~ w F ^ { { { ^ w E ^ ^ ^ E w R ^ { { { ~ w ~ { { ^ R w E { { { { E V ~ { { { X.#.",
"E E ~ E T V V F T T V w V F R ~ ~ W V w V T T V w V T E ~ ~ E w T T F F V w V T E ~ ~ E w F R F T V w V T W ~ ~ R 0 V T ~ { o.%.",
"F R E F V V V V V V V V V V V V V V V V V V V V V V V V V V V V W R w w V V V V V V V V V E ~ V V V w w V V V V V w V V T ^ } X.",
"{ { ^ T V V V V V V V V V V V V V V V V V V V V V V V V V V V w T V w V V V V V V V V w T ~ R w V V w V V V V V V V V V V E ~ ~ ",
"X.} { ~ V V V V V V V V V V V V V V V V V V V V V V V V V V V w V V V V V V V V V V V V V F w w V V V V V V V V V V V V V T F V ",
"$.X.{ ~ V w V V V V V V V V V V V V V V V V V V V V V V V V V V V V V V V V V V V V V V V V V V V V V V V V V V V V V V T ~ { } ",
"&.o.{ ~ F V V V V V V V V V V V V V V V V V V V V V V V V V V V V V V V V V V V V V V V V V V V V V V V V V V V V V V V T { o.%.",
"+. .{ ~ V V V V V V V V V V V V V V V V V V V V V V V V V V V V V V V V V V V V V V V V V V V V V V V V V V V V V V V V ~ { o.&.",
"{ { ^ T V V V V V V V V V V V V V V V V V V V V V V V V V V V V V V V V V V V V V V V V V V V V V V V V V V V V V V V V ^ { } X.",
"F R R V V V V V V V V V V V V V V V V V V V V V V V V V V V B B B B B V V V V V V V V V V V V V V V V V V V V V V V V V R ^ ^ ~ ",
"E E E T V V V V V V V V V V V V V V V V V V V V V V w V B B h j h j j f B B B V w w V V V V V V V V V V V V V V V V V V V R T V ",
" .{ ~ F V V V V V V V V V V V V V V V V V V V V V B V ! n n 8.7.x.l.x.8.m _ y V R R T V w w V V V V V V V V V V V V V V T ~ ^ { ",
"#.X.E V V V V V V V V V V V V V V V V V V V V V B P n k.C.C.l.e.e.c.Z.l.q.x.s.Q { } R V w w V V V V V V V V V V V V V V T { X.#.",
"&.o.~ T V V V V V V V V V V V V V V V V V V V V B j 7.0.e.c.C.C.h.e.C.C.r.C.A.s.^ ~ V w w V V V V V V V V V V V V V V V T { o.&.",
"X.} ^ T V V V V V V V V V V V V V V V V V V V V V h 6.6.6.0.C.C.C.r.c.C.k.x.A.h.T V V T T V V V V V V V V V V V V V V V T { | o.",
"T R E T V V V V V V V V V V V V V V V V V V V V V f 5.8.x.0.0.c.C.l.l.C.C.k.l.9.w B V E E w w V V V V V V V V V V V V V V E { { ",
"R E ~ E V V V V V V V V V V V V w V P w V V V V V i v 6.r.z.h.e.h.C.l.r.c.c.j.m V V V T F w B V V V V V V V V V V V V V V F T V ",
"} { { ~ V w V V V V V V V V V V V f.( q V w w w w f x 5.8.0.j.j.h.j.j.j.j.x.q.j V V V V V V V V V V V V V V V V V V V V T ~ ~ ^ ",
"#.X.} ^ V V V V V V V V V V V w P :.p.V w Z N Z Z Z p s l c 5.5.5.5.5.5.5.v z i V w V V V w w V V V V V V V V V V V V V T { X.@.",
"&.o.} ~ V V V V V V V V V V V w I ;.:.( C * `.W.Y.W.J.$ + o k 3 3 d d d d H ..S q V V V q ! U q V V V V V V V V V V V V E { o.&.",
"o.| { R V V V V V V V V V V V q u.<.1.p.C & P._.U.U.J.G.L.P.$ +X` 6 r G J K 9X9XD V V q U V.( q V V V V V V V V V V V V ^ { | +.",
"R R E V V V V V V V V V V V q I ;.].=X,.u.t Z ] I.U.T.G.!.XXL.&Xd.*.O 8 N C C =.D 9 V w p.>.f.B V V V V V V V V V V V V E { { { ",
"T R E F V V V V V V V V V V V i.1.-X-X1.g.I w 0 A , I.# Y.1X!.Y.Y.Q.E.H.J.T.T.@ w V q U ,.[.,.U q V V V V V V V V V V V F R T V ",
"} { ~ T V V V V V V V w V q ) ,.=X{.;X<.:.) q V w w & * G.oX2X!.$XwXeXOX, W.^.B V V V p.<.;X].p.V V V V V V V V V F V V T ~ ~ ~ ",
"+.X.E V w V V V V V T w w q u.1.;X|.}.-X,.) q w V V w Z * % ).XXR.[ 5Xd.n.OXA w V V V g.]. X{.S.Y q V V V V V V T ~ F w T { X.+.",
"&.o.~ V V V V V V V V V V q ( ,.}.|.|.{.g.Y q V V B V $XrX%X; % U.U.- - = A 0 V V V w f. X.X|.m.i V V V V V V V V R V w F { o.&.",
"+.| { R E T w V V V V V V V q m.}..X|.}.n.q V w V w _ 0XyXyX%X% H.H.G.&X=.w V w V w A ] :X X}.[ q V V V V V V V V V V V T { X.+.",
"E E E T E F 0 w V V V V V V V ' '.{.{.>X(.w V w V ` r.s.0XyXtX6XJ.J.(.yXqXn T B w N ).).*X>X#X/.+ w V V V V V V V V V V F ~ { { ",
"F R E R V V w V V V V V V w A `.1X@X@X2XoXA w B _ z.C.l.M.5XrXtX4XX 7XtX5Xj.a.f w N /.1X_.OXOXU.& w V V V V V V V V V V V T R F ",
"{ { { ^ V w V V V V V V V V w ' ^.oX<XXXE.= w P 9.j.C.C.z.y.D.N./ 2 Q N.j.B.q.r._ C * `.2X+XI.& F w V V V V V V V V V w V E E E ",
"@.X.{ ^ V w V V V V V V V V V w 9 A = K.J.p.a.m 6.e.z.c.C.C.B.3.2 S 2 2.,XF.6.e.z._ v.< I.P.O V w V V V V V V V V V T w F { X.@.",
"&.o.{ ~ V w V V V V V V V V V V V w w I p.A.C.k.0.0.8.j.C.v.,X4.6 S 6 4.F.F.2.c s.h.C.e.I Z w V V V V V V V V V V w V V E { o.&.",
"@.X.{ R V V V V V V V V V V V V V V V y n j.c.A.j.c v q.c.C.C.4.6 D 6 w.B.B.8.u l r.e.b f w V V V V V V V V V V V w w F ~ { X.+.",
"~ ~ W F V V V V V V V V V V V V V V V B w c r.x.8.x v 6.l.Z.D.4.6 D 6 4.C.C.9.g a a a P B V V V V V V V V V V V V w V V ~ { { } ",
"V R E V V R V V V V V V V V V V V V V V V T b 5.z j l 6.z.Z.F.4.2 1 2 w.C.C.9.B V V V V V V V V V V V V V V V V V V V V T E R T ",
"{ { ~ F F W F w V V V V V V V V V V V V w V f a f T u 6.j.C.B.4.o : o 4.C.C.9.w V V V V V V V V V V V V V V V V V V V V F E E E ",
"@. .E V V F V w V V V V V V V V V V V V V V V V V V a 6.0.Z.,X4.> -.> 4.C.C.9.w V V V V V V V V V V V V V V V V V V V V T { | +.",
"&.o.~ V V V V V V V V V V V V V V V V V V V V V w V a 6.q.c.A.w.2 4 2 w.A.l.a V V V V V V V V V V V V V V V V V V V V V T { o.&.",
"@.X.{ T V V V V V V V V V V V V V V V V V V V V V V T z 5.t.z.n 2 4 4 p 3.s 5 V V V V V V V V V V V V V V V V V V V V T V { X.#.",
"^ ~ ~ T V V V V V V V V V V V V V V V V V V V V V w V 5 3 p p 5 q 9 6 r 8 8 9 V V V V V V V V V V V V V V V V V V V V T F ~ { } ",
"V T R R V V V V V V V V V V V V V V V V V V V V V w F 5 7 r r 4 q V 4 t D t q V V V V V V V V V V V V V V V V V V V R E V T E R ",
"{ ^ { ~ V V V V V w V V V V V V V V V V V V V V V V q 6 t t 7 5 V V 9 5 t t 7 q V V V V V V V V V V V V V V V V V V T T V R R R ",
"+.| { ~ V V V V V 0 w V V V V V V V V V V V V V V V 5 4 t t 5 q V V 9 4 t t 7 q V V V V V V V V V V V V V V V V V V V V T { } o.",
"&.o.{ ~ V V V V V w V V V V V V V V V V V V V V w V 9 8 D r 4 V V V V 4 7 D 7 w V V V V V V V V V V V V V V V V V V V V R { o.&.",
"#.X.{ E V V V V V V V V V V V V V V V V V V V V w V 9 . 7 7 6 V V V V q 4 r 7 9 V V B V V V V V V V V V V V V V V V V V ~ { X.#.",
"{ ^ ~ T V V V V V V V V V V V V V V V V V V V V V V 6 7 G S q V V V V w 4 6 7 G q w V V V V V V V V V V V V V V V V V V ~ { { | ",
"V F R V V V V V V V V V V V V V V V V V V V V V V q r G K 3XL w V V V w 7 D D J K J F V V V V V V V V V V V V V V V V V T E E R ",
"} { ~ T V V V V V V V V V V V V V V V V V V V V V 6 6 5 7 G r V V V V w 5 6 6 6 G S q V V V V V V V V V V V V V V V V V V V w 0 ",
"&.o.{ R V V V V V V V V V V V V V V V V V V V V V w w w V w w V V V V V w w w w 0 0 V V V V V V V V V V V V V V V V V F E E E E ",
"+.X.{ ~ V V V V V V V V V V V V V V V V V V V V V V V V W R w w V V V V V V V V V V V V V V V V V V V V V V V V V V V E { { { | ",
"R E E R V V V V V V V V V V V V V V V V V V V V V V V V R F w V V V V V V V V V V V V V V V V V V V V V V V V V V V V ~ { { X.#.",
"R E E T V V V V V V V V V V V V V V V V V V V V V V V V V V w V V V V V V V V V V V V V V V V V V V V V V V V V V V V ~ { { o.&.",
"o.} { ~ V V V V V V V V V V V V V V V V V V V V V V V V V V V V V V V V V V V V V V V V V V T V V V V V V V V V V V V E { }  .+.",
"@.} { ^ F w V V V V V V V V V V V V V V V V V V V V V V V V V V V V w V V V V V V V V T T R W V w V V V V V V V V V V F ~ { { { ",
"} ^ ^ ~ V V V V V V V V V V V V V V V V V V V V V V V V V V V V V V V V V V V V V V V E E V R V V V V V V V V V V V V V R E R V ",
"V T R R F V V T ~ ~ ~ T V F F F F V V P R ~ ~ W F V F F T T V V F R ~ ~ E V V T F F F T F V E ~ ~ E V V F F F F V V T E ~ ~ V   ",
"~ ~ { { ~ T R ^ { } { ~ T ~ { { { W T E { { } { E T ~ { { ^ E T ~ { { } { R R ^ { { ~ R T ~ { { } { T E ^ { { ~ R R ^ { } { ~ e ",
"} X.+.o.} R R } o.+.X.~ V { X.+.o.{ T E  .+.o.| E F } o.+.o.{ T ^ X.o.o.} R R } o.+.X.~ T { X.o.o.{ V E | o.o.| E T { o.o.X.{ 0 ",
"| +.#.#.X.R R X.#.#.+.^ w } +.#.@. .V E o.#.#.o.E V | @.#.+.} V ^ +.#.#.X.R R X.#.#.+.^ V } +.#.#.X.V E o.#.#.o.E V | @.#.+.{ 0 ",
"} | } } } R T } | | } ~ w { | } } { V E } } } } E V { | } | { w ~ | } } { T R } | } } ~ V { | } } { V E } } } } E V { | } } ~   ",
"{ ^ E E ~ T T ^ ~ R R T w ~ ^ E E ~ V R { ~ R R V V ^ ^ E ~ ~ w E ^ E R R V T ^ ~ E ~ E w ~ { E R R w R ^ ~ E ~ R V ^ ^ E E R 0 ",
"R T V V T w w T T V w w e T R V V T 0 V R T V w 0 0 T T V F T 0 V R V V V 0 w T T V T V 0 T R V V w e V T T V T V 0 T T V w E 4X"
};
