/* XPM */
static char *ea7714bfa2ff4d55e2597340afe23d07Y71aubGdf22MIrnE[] = {
/* columns rows colors chars-per-pixel */
"64 64 191 2 ",
"   c #071926",
".  c #081925",
"X  c #091C2B",
"o  c #0A2334",
"O  c #0C263A",
"+  c #0E2A3E",
"@  c #31313F",
"#  c #3D363D",
"$  c #3B383F",
"%  c #0F2D43",
"&  c #102D43",
"*  c #0F3046",
"=  c #0F324A",
"-  c #10334B",
";  c #123B55",
":  c #143E5C",
">  c #343643",
",  c #373A47",
"<  c #3C3B45",
"1  c #3B3E4A",
"2  c #14405E",
"3  c #3C404C",
"4  c #3D4452",
"5  c #36465A",
"6  c #394759",
"7  c #37495D",
"8  c #39485C",
"9  c #154262",
"0  c #194667",
"q  c #19476A",
"w  c #19486B",
"e  c #1A4D73",
"r  c #1B5177",
"t  c #1D557D",
"y  c #1D587F",
"u  c #364C63",
"i  c #3A4C62",
"p  c #364F68",
"a  c #3F5267",
"s  c #34526E",
"d  c #3B526A",
"f  c #335573",
"g  c #3A5772",
"h  c #365877",
"j  c #3A5A75",
"k  c #325B7C",
"l  c #395E7E",
"z  c #42434C",
"x  c #414652",
"c  c #434A55",
"v  c #4A4E56",
"b  c #464E59",
"n  c #484F5A",
"m  c #47505A",
"M  c #4A525D",
"N  c #435163",
"B  c #4C5661",
"V  c #4E5A63",
"C  c #4A5B6A",
"Z  c #505E67",
"A  c #515F68",
"S  c #425D75",
"D  c #526066",
"F  c #53646C",
"G  c #55686F",
"H  c #4D6C7F",
"J  c #536772",
"K  c #566B71",
"L  c #596E73",
"P  c #516E7C",
"I  c #5A7176",
"U  c #5C7579",
"Y  c #1E5781",
"T  c #1E5982",
"R  c #1E5D89",
"E  c #205B86",
"W  c #2F5E82",
"Q  c #205E8A",
"!  c #325D82",
"~  c #385E80",
"^  c #2F6187",
"/  c #21618E",
"(  c #2F638B",
")  c #376084",
"_  c #386183",
"`  c #37668C",
"'  c #38648A",
"]  c #36688F",
"[  c #226493",
"{  c #2E6692",
"}  c #236698",
"|  c #246A9D",
" . c #2C6B9A",
".. c #366A93",
"X. c #396B93",
"o. c #376E99",
"O. c #37719F",
"+. c #38729E",
"@. c #266EA3",
"#. c #2A6FA2",
"$. c #2771A6",
"%. c #2971A6",
"&. c #2773AB",
"*. c #2873A9",
"=. c #2972A9",
"-. c #2873AA",
";. c #2973AB",
":. c #2871A8",
">. c #2974A9",
",. c #2874AB",
"<. c #2974AC",
"1. c #2976AF",
"2. c #2975AE",
"3. c #2974AB",
"4. c #2978AF",
"5. c #3574A5",
"6. c #3A76A4",
"7. c #3676A8",
"8. c #377BAD",
"9. c #3B7CAC",
"0. c #3B7CAD",
"q. c #2777B1",
"w. c #2777B1",
"e. c #2877B1",
"r. c #2877B0",
"t. c #2778B3",
"y. c #297BB7",
"u. c #2A7AB4",
"i. c #277CB8",
"p. c #2C7FBA",
"a. c #357DB3",
"s. c #367EB2",
"d. c #436B89",
"f. c #4A7E9D",
"g. c #2D81BE",
"h. c #3682BB",
"j. c #3585BE",
"k. c #3986BC",
"l. c #2E86C4",
"z. c #2F88C7",
"x. c #2D88C9",
"c. c #3687C2",
"v. c #3087C5",
"b. c #3486C2",
"n. c #3388C5",
"m. c #3C8CC5",
"M. c #328BCB",
"N. c #358BC8",
"B. c #338CCB",
"V. c #368CC9",
"C. c #358CCA",
"Z. c #318ACC",
"A. c #328DCF",
"S. c #308ECE",
"D. c #348CCC",
"F. c #328BCB",
"G. c #328FD1",
"H. c #3292D3",
"J. c #3390D1",
"K. c #3691D3",
"L. c #3491D0",
"P. c #3391D5",
"I. c #3393D6",
"U. c #3391D6",
"Y. c #3693D5",
"T. c #3493D7",
"R. c #3494D7",
"E. c #3492D5",
"W. c #3394D9",
"Q. c #3395DB",
"!. c #3695D9",
"~. c #3494D8",
"^. c #3397DE",
"/. c #3597DD",
"(. c #3496DB",
"). c #3896DC",
"_. c #3598DE",
"`. c #3197E0",
"'. c #379AE2",
"]. c #379DE6",
"[. c #369BE4",
"{. c #389DE5",
"}. c #369FE9",
"|. c #389FE8",
" X c #399FE9",
".X c #36A0EC",
"XX c #39A2EC",
"oX c #3BA5F2",
"OX c #37A8F6",
"+X c #3CA8F5",
"@X c #39A9F9",
/* pixels */
"M M B B b x x b b b c 3 3 b M B V M 3 4 b b b c 1 3 b M C C v < x c b b x 1 x b M B B m 1 c b b b x 1 x n B B B c 1 c b M V G U ",
"x c b c 3 3 3 3 3 3 3 1 3 3 x c b c 3 1 3 3 3 3 1 3 4 z X.9.N i a a 3 3 3 1 3 3 c b b x 1 x c 3 3 3 1 3 4 c b b x 1 3 3 b B F L ",
"x c b 4 3 3 3 3 3 3 3 3 3 3 3 3 1 3 3 3 3 3 3 3 3 3 3 < ~ N.C.!.E.E.h < 1 3 3 3 3 3 3 3 4 M M 3 3 3 1 1 3 3 3 3 3 3 3 3 x M V F ",
"V V V c 3 3 3 3 3 3 3 3 3 3 3 3 3 3 3 3 3 3 3 3 3 3 3 1 3 3 ..B.J.W.K.g 6 3 3 3 3 3 3 3 x b x 1 3 3 1 3 3 3 3 3 3 3 3 3 3 c m b ",
"F V V M 3 3 3 3 3 3 3 3 3 3 3 3 3 3 3 3 3 3 3 3 3 3 3 3 1 1 3 1 o.E.U.J.C.6 1 3 3 3 3 3 3 3 1 1 3 3 3 3 3 3 3 3 3 3 3 3 3 x 4 3 ",
"I F V M 3 3 3 3 3 3 3 3 3 3 3 3 3 3 3 3 3 3 3 3 3 3 3 3 4 6 6 6 4 s.^.U.K.p 1 3 3 3 3 3 3 3 3 3 3 3 3 3 3 3 3 3 3 3 3 3 x M B V ",
"U G V M 3 3 3 3 3 3 3 3 3 3 3 3 3 3 3 3 3 3 3 3 3 3 3 < f ,.#.%.#.v.U.U.W.c.4 1 3 3 3 3 3 3 3 3 3 3 3 3 3 3 3 3 3 3 3 3 x B F I ",
"K F V M 3 3 3 3 3 3 3 3 3 3 3 3 3 3 3 3 3 3 3 3 3 3 3 < k q.-.<.,.<.<.A.W.A.8 1 3 3 3 3 3 3 3 3 3 3 3 3 3 3 3 3 3 3 3 3 b V G U ",
"V V V c 3 3 3 3 3 3 3 3 3 3 3 3 3 3 3 3 3 3 3 3 3 3 1 s ,.-.-.-.,.-.*.Z.R.U.h.6 1 3 3 3 3 3 3 3 3 3 3 3 3 3 3 3 3 3 3 3 M V V K ",
"x c b 3 3 3 3 3 3 3 3 3 3 3 3 3 3 3 3 3 3 3 3 3 3 < p ,.<.-.-.,.*.-.-.<.A.!.U. .4 3 3 3 3 3 3 3 3 3 3 3 3 3 3 3 3 3 3 3 b B V V ",
"x c b 4 3 3 3 3 3 3 3 3 3 3 3 3 3 3 3 3 3 3 3 3 3 < s e.-.,.-.,./ | <.-.[ (. XM.{ 1 3 3 3 3 3 3 3 3 3 3 3 3 3 3 3 3 3 3 4 c x 3 ",
"B B M x 3 3 3 3 3 3 3 3 3 3 3 3 3 3 3 3 3 3 3 3 1 u %.-.<.} T R y T R R T J.].u. .4 3 3 1 3 3 3 3 3 3 3 3 3 3 3 3 3 3 3 4 b c c ",
"G V b 3 3 3 3 3 3 3 3 3 3 3 3 3 3 3 3 3 3 3 3 1 7 #.<.| R T t t t t t t t [ '.M.,.] c 4 1 1 3 3 3 3 3 3 3 3 3 3 3 3 3 3 x B Z G ",
"U F b 3 3 3 3 3 3 3 3 3 3 3 3 3 3 3 3 3 3 1 6  . .,.<.} t t Y t t T T T t E '.U.<. .c 3 1 1 3 3 3 3 3 3 3 3 3 3 3 3 3 3 x B G U ",
"I G B x 3 3 3 3 3 3 3 3 3 3 3 3 3 3 3 3 3 1 7 <.<.<.} | M.M.| t T T y y t R ].].l.-.! , 3 3 3 3 3 3 3 3 3 3 3 3 3 3 3 3 x B F I ",
"V B M x 3 3 3 3 3 3 3 3 3 3 3 3 3 3 3 3 3 1 7 -.<.| } E.XX X-.r r w w t Y t | ].A.-.,.k x 3 3 3 3 3 3 3 3 3 3 3 3 3 3 3 x B V F ",
"4 x c x 3 3 3 3 3 3 3 3 3 3 3 3 3 3 3 3 3 1 5 -.*.<.G.]._.p.r w w q q w e t R ].A.-.q...c 1 1 3 3 3 3 3 3 3 3 3 3 3 3 3 3 b M M ",
"b b M b 3 3 3 3 3 3 3 3 3 3 3 3 3 3 3 3 1 4 { u.M.E.]._.g.r q q w q q q : 2 R }.l.Q e.^ 1 1 1 3 3 3 3 3 3 3 3 3 3 3 3 3 3 x x 3 ",
"V V V M 3 3 3 3 3 3 3 3 3 3 3 3 3 3 3 3 1 6 -.u.(.].^.g.R e w w w q w 2 ; ; E [.E.p.&.%.f 1 3 3 3 3 3 3 3 3 3 3 3 3 3 3 x M M B ",
"L F V M 3 3 3 3 3 3 3 3 3 3 3 3 3 3 3 3 1 6 #.u.[._.l.R t r q w w w 2 ; ; ; e XXM.| -.t.^ < 1 1 3 3 3 3 3 3 3 3 3 3 3 3 x B F L ",
"U G V M 3 3 3 3 3 3 3 3 3 3 3 3 3 3 3 3 1 8 v.(.XXM.Q t r w q w w w : ; ; ; ; R !.u.-.q.^ # _ l < 3 3 3 3 3 3 3 3 3 3 3 b V G U ",
"L F B c 3 3 3 3 3 3 3 3 3 3 3 3 3 3 3 3 1 6 K.oXG./ t T e q q q w 9 ; ; ; ; : <. XM.[ t.^ # O.X.# 3 3 3 3 3 3 3 3 3 3 3 M V F K ",
"m m n 4 3 3 3 3 3 3 3 3 3 3 3 3 3 3 3 1 1 7.].G.[ t T T r q w q w : ; ; ; * - R R } | t.^ # ` N.d < 3 3 3 3 3 3 3 3 3 3 m V V Z ",
"4 c b 3 3 3 3 3 3 3 3 3 3 3 3 3 3 3 3 3 O.^.'.v.t T T T r q w q 9 ; ; ; - + + + ; Q #.| W d c.]._ < 3 3 3 3 3 3 3 3 3 3 x b c x ",
"M M M x 3 3 3 3 3 3 3 1 3 3 3 3 3 3 1 6 A.!.A.| Y T t T r q q w : ; ; ; % + & + - R R [ k _ [.W._ < 3 3 3 3 3 3 3 3 3 3 3 b c x ",
"G Z m 3 3 3 3 3 3 3 3 1 1 3 3 3 3 3 1 1 n.W.u.r t t T t w q q w : ; ; = % + o O w y t [  .5.W.^._ < 3 3 3 3 3 3 x c 4 1 x M V F ",
"U F b 3 1 3 3 3 3 3 3 1 1 3 3 3 3 3 3 X.A.g.@.Y y t T r q w w 9 ; ; ; % + o   X : T t Q &.g.E.W._ < 3 3 3 3 3 3 x b 3 1 x B G I ",
"U G M x x 3 3 3 3 3 3 3 3 3 3 3 3 1 3 N.U.,.@.t t t T r q w w : ; ; - % + X X . o t R | u.M.E.[._ < 3 3 3 3 3 3 3 4 1 1 x B F I ",
"F V M c b c 1 1 3 3 3 3 3 3 3 3 3 3 3 c.U.<.@.Y t t T r q q w : ; ; % + + X X . o t / -.g.!.W.s.i 1 3 3 3 3 3 3 3 1 3 3 x B V G ",
"c c b x c 3 , 1 3 3 3 3 3 3 3 3 3 3 3 c.W.<.@.Y t t T r q q w : ; ; % + + X X X : t Q <.4.x.'._ # 3 3 3 3 3 3 3 3 3 3 3 3 b M M ",
"x c b c 3 3 3 3 3 3 3 3 3 3 3 3 3 1 3 c.l.<.@.Y t t T r q q w 2 ; ; % + + X   o T t R | u.z.'.' < 3 3 3 3 3 3 3 3 3 3 3 3 x x 3 ",
"V V V M 3 3 3 3 3 3 3 3 3 3 3 3 3 1 4 j.q.-.@.Y t t T r q w w 2 ; ; % + + X   o t T t R g.R.(.' < 3 3 3 3 3 3 3 3 3 3 1 x n m m ",
"K A V M 3 3 3 3 3 3 3 3 3 3 3 3 3 1 3 j.u.-.@.Y y T T r q w w : ; ; % + + X . o t T t Q g.U.[.] < 3 3 3 3 3 3 3 3 3 4 1 4 B A K ",
"U G V M 3 3 3 3 3 3 3 3 3 3 3 3 3 1 3 j.i.,.@.Y t t T r q w w : ; ; & + + X . o t t T } p.!.h.d 1 3 3 3 3 3 3 3 3 3 3 3 c V G U ",
"I F V b 3 3 3 3 3 3 3 3 3 3 3 3 3 1 4 h.{ %.@.Y T Y T r q q w 2 ; ; & + + o . o t t Q u.l.[.` # 3 3 3 3 3 3 3 3 3 1 1 3 M V F I ",
"V M M x 3 1 3 3 3 3 3 3 3 3 3 3 3 1 4 c.u  .*.t t T T r q w w : ; ; - % % % o O t t R p.E.^...< 3 3 3 3 3 3 3 3 3 1 1 3 M V V F ",
"3 x c 3 3 4 3 3 3 3 3 3 3 3 3 3 3 1 4 X.u %.@.R } t T r q w w : ; ; ; % + % + - y t R p.K.[...< 3 3 3 3 3 3 3 3 3 3 3 3 x m b c ",
"b m m 4 4 n x 1 3 3 3 3 3 3 3 3 3 3 1 # 4 %.@.} v.r T r q w w : ; ; ; % + % + = t T [ p.R.n.j < 3 3 3 3 3 3 3 3 3 3 3 3 3 c c 4 ",
"F V m 3 4 c 3 1 3 3 3 3 3 3 3 3 3 3 3 g 6 %.@.[ v.[ T r q w w 9 ; ; ; = % + + - t Q %.y.}.o.# 3 3 3 3 3 3 3 3 3 3 3 3 3 4 M M V ",
"I F b 3 3 3 1 1 3 3 3 3 3 3 3 3 3 3 3 +.i #.$.} '.g.r t w q q w : ; ; ; = % % = t / y.M.@X6.< 3 3 3 3 3 3 3 3 3 3 3 3 3 x B F I ",
"U G M 4 3 3 3 3 3 3 3 3 3 3 3 3 3 3 3 < 4 %.<.<.M.M.Q T r q q q ; ; ; ; ; ; ; 9 t [ _.XX!.~ < 3 3 3 3 3 3 3 3 3 3 3 3 3 4 B G U ",
"G Z B x 3 3 3 3 3 3 3 3 3 3 3 3 3 3 3 3 4 ( <.} } oXg.t r q q w 9 ; ; ; ; ; ; Y t [ '.OX8.$ 3 3 3 3 3 3 3 3 3 3 3 3 3 4 3 M F K ",
"b b b x 3 3 3 3 3 3 3 3 3 3 3 3 3 3 3 3 1 6 -.| } oXl.t r w q q w : ; ; ; ; : t t *.XX(.' < 3 3 3 3 3 3 3 3 3 3 3 3 4 x 3 m B V ",
"3 x c c 3 3 3 3 3 3 3 3 3 3 3 3 3 3 3 3 1 6 -.| / ].l.r T r w q w 9 ; ; ; ; ; t | _..X7.< 3 3 3 3 3 3 3 3 3 3 3 3 3 c b 3 x c x ",
"V B B M 3 3 3 3 3 1 3 3 3 3 3 3 3 3 3 3 1 6 ,.@.} (.G.R t T e q w q ; ; ; ; 2 E '.].^.5.< 3 3 3 3 3 3 3 3 3 3 3 3 3 x x 3 c c c ",
"G V V M 3 3 3 3 3 , 1 3 3 3 3 3 3 3 3 3 1 6  .,.$.p.+Xl.r T r w w w 2 ; ; ; r | XX].x.^ 1 3 3 3 3 3 3 3 3 3 3 3 3 3 3 3 x B V G ",
"U G V M 3 3 3 3 3 1 3 3 3 3 3 3 3 3 3 3 3 1 8 <.*.p.oXg.r T T e q w w w : : } ].'.l.q.( < 3 3 3 3 3 3 3 3 3 3 3 3 3 3 3 c V G U ",
"I F V b 3 3 3 3 3 3 3 3 3 3 3 3 3 3 3 3 3 1 6  .$.g.XXy.r T T e q w q q w Y R.].<.-.;.! 1 3 3 3 3 3 3 3 3 3 3 3 3 3 3 3 M V F I ",
"F V M x 3 3 3 3 3 3 3 3 3 3 3 3 3 3 3 3 3 3 1 u *.p.oXg.r T t Y e 0 q w t [ ].(.-.<.{ 1 3 3 3 3 3 3 3 3 3 3 3 3 3 3 3 3 M V V F ",
"3 x c 3 3 3 3 3 3 3 3 3 3 3 3 3 3 3 3 3 3 3 1 8 #.y.}.l.t t t y e w w r T )._.<.-.q.{ 1 3 3 3 3 3 3 3 3 3 3 3 3 3 3 3 3 c M M M ",
"b b b x 3 3 3 3 3 3 3 3 3 3 3 3 3 3 3 3 3 3 3 1 u y._. Xu.t T y t t t t T v.u.-.%.$.^ 1 3 3 3 3 3 3 3 3 3 3 3 3 3 3 3 3 3 x 3 1 ",
"L F B x 3 3 3 3 3 3 3 3 3 3 3 3 3 3 3 3 3 3 3 1 i %.l.XX].%.r T T T t Y T R %.<. .4 4 3 3 3 3 3 3 3 3 3 3 3 3 3 3 3 3 3 x x 4 3 ",
"U G V b 3 3 3 3 3 3 3 3 3 3 3 3 3 3 3 3 3 3 3 3 1 s -.l.XX,.t T t t T T @.*.-.<. .1 1 3 3 3 3 3 3 3 3 3 3 3 3 3 3 3 3 x M M B B ",
"F V M M 3 3 3 3 3 3 3 3 3 3 3 3 3 3 3 3 3 3 3 3 < p <.l.XXz.%.[ t T | -.-.<.,.<.{ 1 3 3 3 3 3 3 3 3 3 3 3 3 3 3 3 1 3 m V V V F ",
"4 c b c 3 3 3 3 3 3 3 3 3 3 3 3 3 3 3 3 3 3 3 3 < g v.#.Z.].g.$.$.$.-.-.-.-.-. .6 3 3 3 3 3 3 3 3 3 3 3 3 3 3 3 3 1 3 M V V F I ",
"m m b x 3 3 3 3 3 3 3 3 3 3 3 3 3 3 3 3 3 3 3 3 1 4 6 f l.!.E.p.-.<.-.-.<.#.7 6 1 3 1 1 1 3 3 3 3 3 3 3 3 3 3 3 3 3 3 M V V G U ",
"K V V M 3 3 3 3 3 3 3 3 3 3 3 3 3 3 3 3 3 3 3 3 3 1 1 1 ! x.!.U.y.$.-.&.%.u 1 1 3 3 3 3 3 3 x 3 3 3 3 3 3 3 3 3 3 3 3 b B V V G ",
"K V V M 3 3 3 3 3 3 3 3 3 3 3 3 3 3 3 3 3 3 3 3 3 3 3 < ) W.E.!.p.*.-.%.s 6.6 1 < g 0.z x c m 3 1 3 3 3 3 3 3 3 3 3 3 4 M B B V ",
"V B B M 3 3 3 3 3 3 3 3 3 3 3 3 3 3 3 3 3 3 3 3 3 3 3 3 4 O.^.E.J.u.s 6 6 j.8 1 1 6 i b b 3 c 3 3 3 3 3 3 3 3 3 3 3 3 3 c b c 3 ",
"3 4 c c 3 3 3 x b M n x 3 3 3 3 3 3 3 3 x b m b 4 3 3 4 3 4 7.^.E.G.S 6.c.K.s.4 3 3 3 x 4 3 c m m c 3 3 3 3 3 3 3 3 4 b M m 3 @ ",
"b m M M b x c M B V V m x m M M M b x b M V V B b x M M M m c 8.(.E.c.E.^.A.j M M M M c x m B V V M x c M M M m x c M B B V b > ",
"V Z F F V c b V F F Z M 3 M F F F B x m V F F V b 4 V F F F m i S k.`.U.d.a x V F F Z m x B F F F V 4 b V F F V b c V F F F M , ",
"Z K I I F c c F I I K M 1 V L I L Z 4 b G I I G b 3 V I I K V 1 M P m.f.D z c F I I K M 3 V K I L Z 3 b F I I F b 4 V I I L V , ",
"V F G G D x c F G G F M 3 V G G G V 3 b F G G F b 3 V G G G V 1 B F H J D c c F G G F M 1 V F G G V 3 b F G G F b 3 V G G G V > "
};
